<svg xmlns="http://www.w3.org/2000/svg" width="1600" height="1130" viewBox="0 0 1600 1130">
  <defs>
    <filter id="shadow" x="-30%" y="-30%" width="160%" height="190%"><feDropShadow dx="0" dy="14" stdDeviation="24" flood-color="#273248" flood-opacity="0.11"/></filter>
    <filter id="softShadow" x="-40%" y="-40%" width="180%" height="220%"><feDropShadow dx="0" dy="7" stdDeviation="13" flood-color="#273248" flood-opacity="0.12"/></filter>
    <clipPath id="listClip" clipPathUnits="userSpaceOnUse"><rect width="876" height="800" rx="48"/></clipPath>
    <symbol id="i-funnel-simple" viewBox="0 0 256 256" fill="currentColor"><ns0:path xmlns:ns0="http://www.w3.org/2000/svg" d="M200,136a8,8,0,0,1-8,8H64a8,8,0,0,1,0-16H192A8,8,0,0,1,200,136Zm32-56H24a8,8,0,0,0,0,16H232a8,8,0,0,0,0-16Zm-80,96H104a8,8,0,0,0,0,16h48a8,8,0,0,0,0-16Z" /></symbol><symbol id="i-funnel-simple-fill" viewBox="0 0 256 256" fill="currentColor"><ns0:path xmlns:ns0="http://www.w3.org/2000/svg" d="M216,40H40A16,16,0,0,0,24,56V200a16,16,0,0,0,16,16H216a16,16,0,0,0,16-16V56A16,16,0,0,0,216,40ZM144,176H112a8,8,0,0,1,0-16h32a8,8,0,0,1,0,16Zm32-40H80a8,8,0,0,1,0-16h96a8,8,0,0,1,0,16Zm32-40H48a8,8,0,0,1,0-16H208a8,8,0,0,1,0,16Z" /></symbol><symbol id="i-check" viewBox="0 0 256 256" fill="currentColor"><ns0:path xmlns:ns0="http://www.w3.org/2000/svg" d="M229.66,77.66l-128,128a8,8,0,0,1-11.32,0l-56-56a8,8,0,0,1,11.32-11.32L96,188.69,218.34,66.34a8,8,0,0,1,11.32,11.32Z" /></symbol><symbol id="i-clock-counter-clockwise" viewBox="0 0 256 256" fill="currentColor"><ns0:path xmlns:ns0="http://www.w3.org/2000/svg" d="M136,80v43.47l36.12,21.67a8,8,0,0,1-8.24,13.72l-40-24A8,8,0,0,1,120,128V80a8,8,0,0,1,16,0Zm-8-48A95.44,95.44,0,0,0,60.08,60.15C52.81,67.51,46.35,74.59,40,82V64a8,8,0,0,0-16,0v40a8,8,0,0,0,8,8H72a8,8,0,0,0,0-16H49c7.15-8.42,14.27-16.35,22.39-24.57a80,80,0,1,1,1.66,114.75,8,8,0,1,0-11,11.64A96,96,0,1,0,128,32Z" /></symbol><symbol id="i-clock-counter-clockwise-fill" viewBox="0 0 256 256" fill="currentColor"><ns0:path xmlns:ns0="http://www.w3.org/2000/svg" d="M224,128A96,96,0,0,1,62.11,197.82a8,8,0,1,1,11-11.64A80,80,0,1,0,71.43,71.43C67.9,75,64.58,78.51,61.35,82L77.66,98.34A8,8,0,0,1,72,112H32a8,8,0,0,1-8-8V64a8,8,0,0,1,13.66-5.66L50,70.7c3.22-3.49,6.54-7,10.06-10.55A96,96,0,0,1,224,128ZM128,72a8,8,0,0,0-8,8v48a8,8,0,0,0,3.88,6.86l40,24a8,8,0,1,0,8.24-13.72L136,123.47V80A8,8,0,0,0,128,72Z" /></symbol><symbol id="i-folder" viewBox="0 0 256 256" fill="currentColor"><ns0:path xmlns:ns0="http://www.w3.org/2000/svg" d="M216,72H131.31L104,44.69A15.86,15.86,0,0,0,92.69,40H40A16,16,0,0,0,24,56V200.62A15.4,15.4,0,0,0,39.38,216H216.89A15.13,15.13,0,0,0,232,200.89V88A16,16,0,0,0,216,72ZM40,56H92.69l16,16H40ZM216,200H40V88H216Z" /></symbol><symbol id="i-folder-fill" viewBox="0 0 256 256" fill="currentColor"><ns0:path xmlns:ns0="http://www.w3.org/2000/svg" d="M216,72H131.31L104,44.69A15.88,15.88,0,0,0,92.69,40H40A16,16,0,0,0,24,56V200.62A15.41,15.41,0,0,0,39.39,216h177.5A15.13,15.13,0,0,0,232,200.89V88A16,16,0,0,0,216,72ZM40,56H92.69l16,16H40Z" /></symbol><symbol id="i-clock" viewBox="0 0 256 256" fill="currentColor"><ns0:path xmlns:ns0="http://www.w3.org/2000/svg" d="M128,24A104,104,0,1,0,232,128,104.11,104.11,0,0,0,128,24Zm0,192a88,88,0,1,1,88-88A88.1,88.1,0,0,1,128,216Zm64-88a8,8,0,0,1-8,8H128a8,8,0,0,1-8-8V72a8,8,0,0,1,16,0v48h48A8,8,0,0,1,192,128Z" /></symbol><symbol id="i-clock-fill" viewBox="0 0 256 256" fill="currentColor"><ns0:path xmlns:ns0="http://www.w3.org/2000/svg" d="M128,24A104,104,0,1,0,232,128,104.11,104.11,0,0,0,128,24Zm56,112H128a8,8,0,0,1-8-8V72a8,8,0,0,1,16,0v48h48a8,8,0,0,1,0,16Z" /></symbol><symbol id="i-caret-down" viewBox="0 0 256 256" fill="currentColor"><ns0:path xmlns:ns0="http://www.w3.org/2000/svg" d="M213.66,101.66l-80,80a8,8,0,0,1-11.32,0l-80-80A8,8,0,0,1,53.66,90.34L128,164.69l74.34-74.35a8,8,0,0,1,11.32,11.32Z" /></symbol><symbol id="i-caret-right" viewBox="0 0 256 256" fill="currentColor"><ns0:path xmlns:ns0="http://www.w3.org/2000/svg" d="M181.66,133.66l-80,80a8,8,0,0,1-11.32-11.32L164.69,128,90.34,53.66a8,8,0,0,1,11.32-11.32l80,80A8,8,0,0,1,181.66,133.66Z" /></symbol><symbol id="i-push-pin-simple" viewBox="0 0 256 256" fill="currentColor"><ns0:path xmlns:ns0="http://www.w3.org/2000/svg" d="M216,168h-9.29L185.54,48H192a8,8,0,0,0,0-16H64a8,8,0,0,0,0,16h6.46L49.29,168H40a8,8,0,0,0,0,16h80v56a8,8,0,0,0,16,0V184h80a8,8,0,0,0,0-16ZM86.71,48h82.58l21.17,120H65.54Z" /></symbol><symbol id="i-push-pin-simple-fill" viewBox="0 0 256 256" fill="currentColor"><ns0:path xmlns:ns0="http://www.w3.org/2000/svg" d="M224,176a8,8,0,0,1-8,8H136v56a8,8,0,0,1-16,0V184H40a8,8,0,0,1,0-16h9.29L70.46,48H64a8,8,0,0,1,0-16H192a8,8,0,0,1,0,16h-6.46l21.17,120H216A8,8,0,0,1,224,176Z" /></symbol><symbol id="i-magic-wand" viewBox="0 0 256 256" fill="currentColor"><ns0:path xmlns:ns0="http://www.w3.org/2000/svg" d="M48,64a8,8,0,0,1,8-8H72V40a8,8,0,0,1,16,0V56h16a8,8,0,0,1,0,16H88V88a8,8,0,0,1-16,0V72H56A8,8,0,0,1,48,64ZM184,192h-8v-8a8,8,0,0,0-16,0v8h-8a8,8,0,0,0,0,16h8v8a8,8,0,0,0,16,0v-8h8a8,8,0,0,0,0-16Zm56-48H224V128a8,8,0,0,0-16,0v16H192a8,8,0,0,0,0,16h16v16a8,8,0,0,0,16,0V160h16a8,8,0,0,0,0-16ZM219.31,80,80,219.31a16,16,0,0,1-22.62,0L36.68,198.63a16,16,0,0,1,0-22.63L176,36.69a16,16,0,0,1,22.63,0l20.68,20.68A16,16,0,0,1,219.31,80Zm-54.63,32L144,91.31l-96,96L68.68,208ZM208,68.69,187.31,48l-32,32L176,100.69Z" /></symbol><symbol id="i-magic-wand-fill" viewBox="0 0 256 256" fill="currentColor"><ns0:path xmlns:ns0="http://www.w3.org/2000/svg" d="M248,152a8,8,0,0,1-8,8H224v16a8,8,0,0,1-16,0V160H192a8,8,0,0,1,0-16h16V128a8,8,0,0,1,16,0v16h16A8,8,0,0,1,248,152ZM56,72H72V88a8,8,0,0,0,16,0V72h16a8,8,0,0,0,0-16H88V40a8,8,0,0,0-16,0V56H56a8,8,0,0,0,0,16ZM184,192h-8v-8a8,8,0,0,0-16,0v8h-8a8,8,0,0,0,0,16h8v8a8,8,0,0,0,16,0v-8h8a8,8,0,0,0,0-16ZM219.31,80,80,219.31a16,16,0,0,1-22.62,0L36.68,198.63a16,16,0,0,1,0-22.63L176,36.69a16,16,0,0,1,22.63,0l20.68,20.68A16,16,0,0,1,219.31,80ZM208,68.69,187.31,48l-32,32L176,100.69Z" /></symbol><symbol id="i-archive" viewBox="0 0 256 256" fill="currentColor"><ns0:path xmlns:ns0="http://www.w3.org/2000/svg" d="M224,48H32A16,16,0,0,0,16,64V88a16,16,0,0,0,16,16v88a16,16,0,0,0,16,16H208a16,16,0,0,0,16-16V104a16,16,0,0,0,16-16V64A16,16,0,0,0,224,48ZM208,192H48V104H208ZM224,88H32V64H224V88ZM96,136a8,8,0,0,1,8-8h48a8,8,0,0,1,0,16H104A8,8,0,0,1,96,136Z" /></symbol><symbol id="i-archive-fill" viewBox="0 0 256 256" fill="currentColor"><ns0:path xmlns:ns0="http://www.w3.org/2000/svg" d="M224,48H32A16,16,0,0,0,16,64V88a16,16,0,0,0,16,16v88a16,16,0,0,0,16,16H208a16,16,0,0,0,16-16V104a16,16,0,0,0,16-16V64A16,16,0,0,0,224,48Zm-72,96H104a8,8,0,0,1,0-16h48a8,8,0,0,1,0,16Zm72-56H32V64H224V88Z" /></symbol><symbol id="i-folders" viewBox="0 0 256 256" fill="currentColor"><ns0:path xmlns:ns0="http://www.w3.org/2000/svg" d="M224,64H154.67L126.93,43.2a16.12,16.12,0,0,0-9.6-3.2H72A16,16,0,0,0,56,56V72H40A16,16,0,0,0,24,88V200a16,16,0,0,0,16,16H192.89A15.13,15.13,0,0,0,208,200.89V184h16.89A15.13,15.13,0,0,0,240,168.89V80A16,16,0,0,0,224,64ZM192,200H40V88H85.33l29.87,22.4A8,8,0,0,0,120,112h72Zm32-32H208V112a16,16,0,0,0-16-16H122.67L94.93,75.2a16.12,16.12,0,0,0-9.6-3.2H72V56h45.33L147.2,78.4A8,8,0,0,0,152,80h72Z" /></symbol><symbol id="i-folders-fill" viewBox="0 0 256 256" fill="currentColor"><ns0:path xmlns:ns0="http://www.w3.org/2000/svg" d="M224,64H154.67L126.93,43.2a16.12,16.12,0,0,0-9.6-3.2H72A16,16,0,0,0,56,56V72H40A16,16,0,0,0,24,88V200a16,16,0,0,0,16,16H192.89A15.13,15.13,0,0,0,208,200.89V184h16.89A15.13,15.13,0,0,0,240,168.89V80A16,16,0,0,0,224,64Zm0,104H208V112a16,16,0,0,0-16-16H122.67L94.93,75.2a16.12,16.12,0,0,0-9.6-3.2H72V56h45.33L147.2,78.4A8,8,0,0,0,152,80h72Z" /></symbol><symbol id="i-trash-simple" viewBox="0 0 256 256" fill="currentColor"><ns0:path xmlns:ns0="http://www.w3.org/2000/svg" d="M216,48H40a8,8,0,0,0,0,16h8V208a16,16,0,0,0,16,16H192a16,16,0,0,0,16-16V64h8a8,8,0,0,0,0-16ZM192,208H64V64H192ZM80,24a8,8,0,0,1,8-8h80a8,8,0,0,1,0,16H88A8,8,0,0,1,80,24Z" /></symbol><symbol id="i-trash-simple-fill" viewBox="0 0 256 256" fill="currentColor"><ns0:path xmlns:ns0="http://www.w3.org/2000/svg" d="M224,56a8,8,0,0,1-8,8h-8V208a16,16,0,0,1-16,16H64a16,16,0,0,1-16-16V64H40a8,8,0,0,1,0-16H216A8,8,0,0,1,224,56ZM88,32h80a8,8,0,0,0,0-16H88a8,8,0,0,0,0,16Z" /></symbol><symbol id="i-arrow-counter-clockwise" viewBox="0 0 256 256" fill="currentColor"><ns0:path xmlns:ns0="http://www.w3.org/2000/svg" d="M224,128a96,96,0,0,1-94.71,96H128A95.38,95.38,0,0,1,62.1,197.8a8,8,0,0,1,11-11.63A80,80,0,1,0,71.43,71.39a3.07,3.07,0,0,1-.26.25L44.59,96H72a8,8,0,0,1,0,16H24a8,8,0,0,1-8-8V56a8,8,0,0,1,16,0V85.8L60.25,60A96,96,0,0,1,224,128Z" /></symbol><symbol id="i-arrow-counter-clockwise-fill" viewBox="0 0 256 256" fill="currentColor"><ns0:path xmlns:ns0="http://www.w3.org/2000/svg" d="M224,128a96,96,0,0,1-94.71,96H128A95.38,95.38,0,0,1,62.1,197.8a8,8,0,0,1,11-11.63A80,80,0,1,0,71.43,71.39a3.07,3.07,0,0,1-.26.25L60.63,81.29l17,17A8,8,0,0,1,72,112H24a8,8,0,0,1-8-8V56A8,8,0,0,1,29.66,50.3L49.31,70,60.25,60A96,96,0,0,1,224,128Z" /></symbol><symbol id="i-folder-plus" viewBox="0 0 256 256" fill="currentColor"><ns0:path xmlns:ns0="http://www.w3.org/2000/svg" d="M216,72H131.31L104,44.69A15.86,15.86,0,0,0,92.69,40H40A16,16,0,0,0,24,56V200.62A15.4,15.4,0,0,0,39.38,216H216.89A15.13,15.13,0,0,0,232,200.89V88A16,16,0,0,0,216,72ZM92.69,56l16,16H40V56ZM216,200H40V88H216Zm-88-88a8,8,0,0,1,8,8v16h16a8,8,0,0,1,0,16H136v16a8,8,0,0,1-16,0V152H104a8,8,0,0,1,0-16h16V120A8,8,0,0,1,128,112Z" /></symbol><symbol id="i-folder-plus-fill" viewBox="0 0 256 256" fill="currentColor"><ns0:path xmlns:ns0="http://www.w3.org/2000/svg" d="M216,72H131.31L104,44.69A15.88,15.88,0,0,0,92.69,40H40A16,16,0,0,0,24,56V200.62A15.41,15.41,0,0,0,39.39,216h177.5A15.13,15.13,0,0,0,232,200.89V88A16,16,0,0,0,216,72ZM40,56H92.69l16,16H40Zm112,96H136v16a8,8,0,0,1-16,0V152H104a8,8,0,0,1,0-16h16V120a8,8,0,0,1,16,0v16h16a8,8,0,0,1,0,16Z" /></symbol>
  </defs>
  <title>Hermes home and session icon masters</title>
<rect width="1600" height="1130" fill="#F3F5F9"/><text x="82" y="86" font-family="Inter,Arial,sans-serif" font-size="20" font-weight="700" letter-spacing="5" fill="#2A9FE8">HERMES MOBILE · ROUND 03</text><text x="82" y="144" font-family="Inter,Arial,sans-serif" font-size="44" font-weight="700" fill="#1D2637">Home &amp; session management icons</text><text x="82" y="184" font-family="Inter,Arial,sans-serif" font-size="21" fill="#7A869A">Closed geometry · calm defaults · color reserved for state and consequence</text><g transform="translate(82 240)"><rect width="196" height="346" rx="32" fill="#FFFFFF" filter="url(#shadow)"/><text x="22" y="36" font-family="Inter,Arial,sans-serif" font-size="13" font-weight="700" letter-spacing="1.5" fill="#8B96A9">FILTERS</text><rect x="22" y="56" width="152" height="152" rx="30" fill="#F6F8FC"/><use href="#i-funnel-simple" x="62" y="96" width="72" height="72" color="#667287" opacity="1"/><circle cx="151" cy="185" r="26" fill="#E5F3FD"/><use href="#i-funnel-simple-fill" x="136" y="170" width="30" height="30" color="#2A9FE8" opacity="1"/><text x="22" y="248" font-family="Inter,Arial,sans-serif" font-size="19" font-weight="700" fill="#1D2637">Filter</text><text x="22" y="278" font-family="Inter,Arial,sans-serif" font-size="15" fill="#8A95A7">24 px master</text><use href="#i-funnel-simple" x="22" y="298" width="24" height="24" color="#667287" opacity="1"/><text x="58" y="317" font-family="Inter,Arial,sans-serif" font-size="14" fill="#8A95A7">actual size</text></g><g transform="translate(300 240)"><rect width="196" height="346" rx="32" fill="#FFFFFF" filter="url(#shadow)"/><text x="22" y="36" font-family="Inter,Arial,sans-serif" font-size="13" font-weight="700" letter-spacing="1.5" fill="#8B96A9">FILTERS</text><rect x="22" y="56" width="152" height="152" rx="30" fill="#F6F8FC"/><use href="#i-check" x="62" y="96" width="72" height="72" color="#667287" opacity="1"/><text x="22" y="248" font-family="Inter,Arial,sans-serif" font-size="19" font-weight="700" fill="#1D2637">Selected</text><text x="22" y="278" font-family="Inter,Arial,sans-serif" font-size="15" fill="#8A95A7">24 px master</text><use href="#i-check" x="22" y="298" width="24" height="24" color="#667287" opacity="1"/><text x="58" y="317" font-family="Inter,Arial,sans-serif" font-size="14" fill="#8A95A7">actual size</text></g><g transform="translate(518 240)"><rect width="196" height="346" rx="32" fill="#FFFFFF" filter="url(#shadow)"/><text x="22" y="36" font-family="Inter,Arial,sans-serif" font-size="13" font-weight="700" letter-spacing="1.5" fill="#8B96A9">FILTERS</text><rect x="22" y="56" width="152" height="152" rx="30" fill="#F6F8FC"/><use href="#i-clock-counter-clockwise" x="62" y="96" width="72" height="72" color="#667287" opacity="1"/><circle cx="151" cy="185" r="26" fill="#E5F3FD"/><use href="#i-clock-counter-clockwise-fill" x="136" y="170" width="30" height="30" color="#2A9FE8" opacity="1"/><text x="22" y="248" font-family="Inter,Arial,sans-serif" font-size="19" font-weight="700" fill="#1D2637">Recent</text><text x="22" y="278" font-family="Inter,Arial,sans-serif" font-size="15" fill="#8A95A7">24 px master</text><use href="#i-clock-counter-clockwise" x="22" y="298" width="24" height="24" color="#667287" opacity="1"/><text x="58" y="317" font-family="Inter,Arial,sans-serif" font-size="14" fill="#8A95A7">actual size</text></g><g transform="translate(736 240)"><rect width="196" height="346" rx="32" fill="#FFFFFF" filter="url(#shadow)"/><text x="22" y="36" font-family="Inter,Arial,sans-serif" font-size="13" font-weight="700" letter-spacing="1.5" fill="#8B96A9">FILTERS</text><rect x="22" y="56" width="152" height="152" rx="30" fill="#F6F8FC"/><use href="#i-folder" x="62" y="96" width="72" height="72" color="#667287" opacity="1"/><circle cx="151" cy="185" r="26" fill="#E5F3FD"/><use href="#i-folder-fill" x="136" y="170" width="30" height="30" color="#2A9FE8" opacity="1"/><text x="22" y="248" font-family="Inter,Arial,sans-serif" font-size="19" font-weight="700" fill="#1D2637">Project</text><text x="22" y="278" font-family="Inter,Arial,sans-serif" font-size="15" fill="#8A95A7">24 px master</text><use href="#i-folder" x="22" y="298" width="24" height="24" color="#667287" opacity="1"/><text x="58" y="317" font-family="Inter,Arial,sans-serif" font-size="14" fill="#8A95A7">actual size</text></g><g transform="translate(954 240)"><rect width="196" height="346" rx="32" fill="#FFFFFF" filter="url(#shadow)"/><text x="22" y="36" font-family="Inter,Arial,sans-serif" font-size="13" font-weight="700" letter-spacing="1.5" fill="#8B96A9">FILTERS</text><rect x="22" y="56" width="152" height="152" rx="30" fill="#F6F8FC"/><use href="#i-clock" x="62" y="96" width="72" height="72" color="#667287" opacity="1"/><circle cx="151" cy="185" r="26" fill="#E5F3FD"/><use href="#i-clock-fill" x="136" y="170" width="30" height="30" color="#2A9FE8" opacity="1"/><text x="22" y="248" font-family="Inter,Arial,sans-serif" font-size="19" font-weight="700" fill="#1D2637">Time range</text><text x="22" y="278" font-family="Inter,Arial,sans-serif" font-size="15" fill="#8A95A7">24 px master</text><use href="#i-clock" x="22" y="298" width="24" height="24" color="#667287" opacity="1"/><text x="58" y="317" font-family="Inter,Arial,sans-serif" font-size="14" fill="#8A95A7">actual size</text></g><g transform="translate(1172 240)"><rect width="196" height="346" rx="32" fill="#FFFFFF" filter="url(#shadow)"/><text x="22" y="36" font-family="Inter,Arial,sans-serif" font-size="13" font-weight="700" letter-spacing="1.5" fill="#8B96A9">FILTERS</text><rect x="22" y="56" width="152" height="152" rx="30" fill="#F6F8FC"/><use href="#i-caret-down" x="62" y="96" width="72" height="72" color="#667287" opacity="1"/><text x="22" y="248" font-family="Inter,Arial,sans-serif" font-size="19" font-weight="700" fill="#1D2637">Expand</text><text x="22" y="278" font-family="Inter,Arial,sans-serif" font-size="15" fill="#8A95A7">24 px master</text><use href="#i-caret-down" x="22" y="298" width="24" height="24" color="#667287" opacity="1"/><text x="58" y="317" font-family="Inter,Arial,sans-serif" font-size="14" fill="#8A95A7">actual size</text></g><g transform="translate(1390 240)"><rect width="196" height="346" rx="32" fill="#FFFFFF" filter="url(#shadow)"/><text x="22" y="36" font-family="Inter,Arial,sans-serif" font-size="13" font-weight="700" letter-spacing="1.5" fill="#8B96A9">FILTERS</text><rect x="22" y="56" width="152" height="152" rx="30" fill="#F6F8FC"/><use href="#i-caret-right" x="62" y="96" width="72" height="72" color="#667287" opacity="1"/><text x="22" y="248" font-family="Inter,Arial,sans-serif" font-size="19" font-weight="700" fill="#1D2637">Collapse</text><text x="22" y="278" font-family="Inter,Arial,sans-serif" font-size="15" fill="#8A95A7">24 px master</text><use href="#i-caret-right" x="22" y="298" width="24" height="24" color="#667287" opacity="1"/><text x="58" y="317" font-family="Inter,Arial,sans-serif" font-size="14" fill="#8A95A7">actual size</text></g><g transform="translate(82 612)"><rect width="196" height="346" rx="32" fill="#FFFFFF" filter="url(#shadow)"/><text x="22" y="36" font-family="Inter,Arial,sans-serif" font-size="13" font-weight="700" letter-spacing="1.5" fill="#8B96A9">SESSION</text><rect x="22" y="56" width="152" height="152" rx="30" fill="#F6F8FC"/><use href="#i-push-pin-simple" x="62" y="96" width="72" height="72" color="#667287" opacity="1"/><circle cx="151" cy="185" r="26" fill="#E5F3FD"/><use href="#i-push-pin-simple-fill" x="136" y="170" width="30" height="30" color="#F4A522" opacity="1"/><text x="22" y="248" font-family="Inter,Arial,sans-serif" font-size="19" font-weight="700" fill="#1D2637">Pin</text><text x="22" y="278" font-family="Inter,Arial,sans-serif" font-size="15" fill="#8A95A7">24 px master</text><use href="#i-push-pin-simple" x="22" y="298" width="24" height="24" color="#667287" opacity="1"/><text x="58" y="317" font-family="Inter,Arial,sans-serif" font-size="14" fill="#8A95A7">actual size</text></g><g transform="translate(300 612)"><rect width="196" height="346" rx="32" fill="#FFFFFF" filter="url(#shadow)"/><text x="22" y="36" font-family="Inter,Arial,sans-serif" font-size="13" font-weight="700" letter-spacing="1.5" fill="#8B96A9">SESSION</text><rect x="22" y="56" width="152" height="152" rx="30" fill="#F6F8FC"/><use href="#i-magic-wand" x="62" y="96" width="72" height="72" color="#667287" opacity="1"/><circle cx="151" cy="185" r="26" fill="#E5F3FD"/><use href="#i-magic-wand-fill" x="136" y="170" width="30" height="30" color="#7C63E8" opacity="1"/><text x="22" y="248" font-family="Inter,Arial,sans-serif" font-size="19" font-weight="700" fill="#1D2637">AI rename</text><text x="22" y="278" font-family="Inter,Arial,sans-serif" font-size="15" fill="#8A95A7">24 px master</text><use href="#i-magic-wand" x="22" y="298" width="24" height="24" color="#667287" opacity="1"/><text x="58" y="317" font-family="Inter,Arial,sans-serif" font-size="14" fill="#8A95A7">actual size</text></g><g transform="translate(518 612)"><rect width="196" height="346" rx="32" fill="#FFFFFF" filter="url(#shadow)"/><text x="22" y="36" font-family="Inter,Arial,sans-serif" font-size="13" font-weight="700" letter-spacing="1.5" fill="#8B96A9">SESSION</text><rect x="22" y="56" width="152" height="152" rx="30" fill="#F6F8FC"/><use href="#i-archive" x="62" y="96" width="72" height="72" color="#667287" opacity="1"/><circle cx="151" cy="185" r="26" fill="#E5F3FD"/><use href="#i-archive-fill" x="136" y="170" width="30" height="30" color="#F4A522" opacity="1"/><text x="22" y="248" font-family="Inter,Arial,sans-serif" font-size="19" font-weight="700" fill="#1D2637">Archive</text><text x="22" y="278" font-family="Inter,Arial,sans-serif" font-size="15" fill="#8A95A7">24 px master</text><use href="#i-archive" x="22" y="298" width="24" height="24" color="#667287" opacity="1"/><text x="58" y="317" font-family="Inter,Arial,sans-serif" font-size="14" fill="#8A95A7">actual size</text></g><g transform="translate(736 612)"><rect width="196" height="346" rx="32" fill="#FFFFFF" filter="url(#shadow)"/><text x="22" y="36" font-family="Inter,Arial,sans-serif" font-size="13" font-weight="700" letter-spacing="1.5" fill="#8B96A9">SESSION</text><rect x="22" y="56" width="152" height="152" rx="30" fill="#F6F8FC"/><use href="#i-folders" x="62" y="96" width="72" height="72" color="#667287" opacity="1"/><circle cx="151" cy="185" r="26" fill="#E5F3FD"/><use href="#i-folders-fill" x="136" y="170" width="30" height="30" color="#2A9FE8" opacity="1"/><text x="22" y="248" font-family="Inter,Arial,sans-serif" font-size="19" font-weight="700" fill="#1D2637">Move project</text><text x="22" y="278" font-family="Inter,Arial,sans-serif" font-size="15" fill="#8A95A7">24 px master</text><use href="#i-folders" x="22" y="298" width="24" height="24" color="#667287" opacity="1"/><text x="58" y="317" font-family="Inter,Arial,sans-serif" font-size="14" fill="#8A95A7">actual size</text></g><g transform="translate(954 612)"><rect width="196" height="346" rx="32" fill="#FFFFFF" filter="url(#shadow)"/><text x="22" y="36" font-family="Inter,Arial,sans-serif" font-size="13" font-weight="700" letter-spacing="1.5" fill="#8B96A9">SESSION</text><rect x="22" y="56" width="152" height="152" rx="30" fill="#F6F8FC"/><use href="#i-trash-simple" x="62" y="96" width="72" height="72" color="#667287" opacity="1"/><circle cx="151" cy="185" r="26" fill="#E5F3FD"/><use href="#i-trash-simple-fill" x="136" y="170" width="30" height="30" color="#F05261" opacity="1"/><text x="22" y="248" font-family="Inter,Arial,sans-serif" font-size="19" font-weight="700" fill="#1D2637">Delete</text><text x="22" y="278" font-family="Inter,Arial,sans-serif" font-size="15" fill="#8A95A7">24 px master</text><use href="#i-trash-simple" x="22" y="298" width="24" height="24" color="#667287" opacity="1"/><text x="58" y="317" font-family="Inter,Arial,sans-serif" font-size="14" fill="#8A95A7">actual size</text></g><g transform="translate(1172 612)"><rect width="196" height="346" rx="32" fill="#FFFFFF" filter="url(#shadow)"/><text x="22" y="36" font-family="Inter,Arial,sans-serif" font-size="13" font-weight="700" letter-spacing="1.5" fill="#8B96A9">ARCHIVE</text><rect x="22" y="56" width="152" height="152" rx="30" fill="#F6F8FC"/><use href="#i-arrow-counter-clockwise" x="62" y="96" width="72" height="72" color="#667287" opacity="1"/><circle cx="151" cy="185" r="26" fill="#E5F3FD"/><use href="#i-arrow-counter-clockwise-fill" x="136" y="170" width="30" height="30" color="#25BF91" opacity="1"/><text x="22" y="248" font-family="Inter,Arial,sans-serif" font-size="19" font-weight="700" fill="#1D2637">Restore</text><text x="22" y="278" font-family="Inter,Arial,sans-serif" font-size="15" fill="#8A95A7">24 px master</text><use href="#i-arrow-counter-clockwise" x="22" y="298" width="24" height="24" color="#667287" opacity="1"/><text x="58" y="317" font-family="Inter,Arial,sans-serif" font-size="14" fill="#8A95A7">actual size</text></g><g transform="translate(1390 612)"><rect width="196" height="346" rx="32" fill="#FFFFFF" filter="url(#shadow)"/><text x="22" y="36" font-family="Inter,Arial,sans-serif" font-size="13" font-weight="700" letter-spacing="1.5" fill="#8B96A9">PROJECT</text><rect x="22" y="56" width="152" height="152" rx="30" fill="#F6F8FC"/><use href="#i-folder-plus" x="62" y="96" width="72" height="72" color="#667287" opacity="1"/><circle cx="151" cy="185" r="26" fill="#E5F3FD"/><use href="#i-folder-plus-fill" x="136" y="170" width="30" height="30" color="#2A9FE8" opacity="1"/><text x="22" y="248" font-family="Inter,Arial,sans-serif" font-size="19" font-weight="700" fill="#1D2637">New project</text><text x="22" y="278" font-family="Inter,Arial,sans-serif" font-size="15" fill="#8A95A7">24 px master</text><use href="#i-folder-plus" x="22" y="298" width="24" height="24" color="#667287" opacity="1"/><text x="58" y="317" font-family="Inter,Arial,sans-serif" font-size="14" fill="#8A95A7">actual size</text></g><g transform="translate(82 1001)"><rect width="1436" height="72" rx="28" fill="#FFFFFF" filter="url(#softShadow)"/><circle cx="32" cy="36" r="6" fill="#28C7BE"/><text x="52" y="43" font-family="Inter,Arial,sans-serif" font-size="17" fill="#667287">16 px filter-safe</text><circle cx="340" cy="36" r="6" fill="#28C7BE"/><text x="360" y="43" font-family="Inter,Arial,sans-serif" font-size="17" fill="#667287">24 px action-safe</text><circle cx="642" cy="36" r="6" fill="#28C7BE"/><text x="662" y="43" font-family="Inter,Arial,sans-serif" font-size="17" fill="#667287">Destructive red only</text><circle cx="930" cy="36" r="6" fill="#28C7BE"/><text x="950" y="43" font-family="Inter,Arial,sans-serif" font-size="17" fill="#667287">Outline + active state</text></g></svg>