<svg xmlns="http://www.w3.org/2000/svg" width="1600" height="1120" viewBox="0 0 1600 1120">
  <defs>
    <filter id="shadow" x="-30%" y="-30%" width="160%" height="190%"><feDropShadow dx="0" dy="14" stdDeviation="24" flood-color="#273248" flood-opacity="0.11"/></filter>
    <filter id="softShadow" x="-40%" y="-40%" width="180%" height="220%"><feDropShadow dx="0" dy="7" stdDeviation="13" flood-color="#273248" flood-opacity="0.11"/></filter>
    <symbol id="i-arrow-left" viewBox="0 0 256 256" fill="currentColor"><ns0:path xmlns:ns0="http://www.w3.org/2000/svg" d="M224,128a8,8,0,0,1-8,8H59.31l58.35,58.34a8,8,0,0,1-11.32,11.32l-72-72a8,8,0,0,1,0-11.32l72-72a8,8,0,0,1,11.32,11.32L59.31,120H216A8,8,0,0,1,224,128Z" /></symbol><symbol id="i-arrow-left-fill" viewBox="0 0 256 256" fill="currentColor"><ns0:path xmlns:ns0="http://www.w3.org/2000/svg" d="M224,128a8,8,0,0,1-8,8H120v64a8,8,0,0,1-13.66,5.66l-72-72a8,8,0,0,1,0-11.32l72-72A8,8,0,0,1,120,56v64h96A8,8,0,0,1,224,128Z" /></symbol><symbol id="i-caret-right" viewBox="0 0 256 256" fill="currentColor"><ns0:path xmlns:ns0="http://www.w3.org/2000/svg" d="M181.66,133.66l-80,80a8,8,0,0,1-11.32-11.32L164.69,128,90.34,53.66a8,8,0,0,1,11.32-11.32l80,80A8,8,0,0,1,181.66,133.66Z" /></symbol><symbol id="i-caret-right-fill" viewBox="0 0 256 256" fill="currentColor"><ns0:path xmlns:ns0="http://www.w3.org/2000/svg" d="M181.66,133.66l-80,80A8,8,0,0,1,88,208V48a8,8,0,0,1,13.66-5.66l80,80A8,8,0,0,1,181.66,133.66Z" /></symbol><symbol id="i-caret-down" viewBox="0 0 256 256" fill="currentColor"><ns0:path xmlns:ns0="http://www.w3.org/2000/svg" d="M213.66,101.66l-80,80a8,8,0,0,1-11.32,0l-80-80A8,8,0,0,1,53.66,90.34L128,164.69l74.34-74.35a8,8,0,0,1,11.32,11.32Z" /></symbol><symbol id="i-caret-down-fill" viewBox="0 0 256 256" fill="currentColor"><ns0:path xmlns:ns0="http://www.w3.org/2000/svg" d="M213.66,101.66l-80,80a8,8,0,0,1-11.32,0l-80-80A8,8,0,0,1,48,88H208a8,8,0,0,1,5.66,13.66Z" /></symbol><symbol id="i-caret-up" viewBox="0 0 256 256" fill="currentColor"><ns0:path xmlns:ns0="http://www.w3.org/2000/svg" d="M213.66,165.66a8,8,0,0,1-11.32,0L128,91.31,53.66,165.66a8,8,0,0,1-11.32-11.32l80-80a8,8,0,0,1,11.32,0l80,80A8,8,0,0,1,213.66,165.66Z" /></symbol><symbol id="i-caret-up-fill" viewBox="0 0 256 256" fill="currentColor"><ns0:path xmlns:ns0="http://www.w3.org/2000/svg" d="M215.39,163.06A8,8,0,0,1,208,168H48a8,8,0,0,1-5.66-13.66l80-80a8,8,0,0,1,11.32,0l80,80A8,8,0,0,1,215.39,163.06Z" /></symbol><symbol id="i-x" viewBox="0 0 256 256" fill="currentColor"><ns0:path xmlns:ns0="http://www.w3.org/2000/svg" d="M205.66,194.34a8,8,0,0,1-11.32,11.32L128,139.31,61.66,205.66a8,8,0,0,1-11.32-11.32L116.69,128,50.34,61.66A8,8,0,0,1,61.66,50.34L128,116.69l66.34-66.35a8,8,0,0,1,11.32,11.32L139.31,128Z" /></symbol><symbol id="i-x-fill" viewBox="0 0 256 256" fill="currentColor"><ns0:path xmlns:ns0="http://www.w3.org/2000/svg" d="M208,32H48A16,16,0,0,0,32,48V208a16,16,0,0,0,16,16H208a16,16,0,0,0,16-16V48A16,16,0,0,0,208,32ZM181.66,170.34a8,8,0,0,1-11.32,11.32L128,139.31,85.66,181.66a8,8,0,0,1-11.32-11.32L116.69,128,74.34,85.66A8,8,0,0,1,85.66,74.34L128,116.69l42.34-42.35a8,8,0,0,1,11.32,11.32L139.31,128Z" /></symbol><symbol id="i-dots-three" viewBox="0 0 256 256" fill="currentColor"><ns0:path xmlns:ns0="http://www.w3.org/2000/svg" d="M140,128a12,12,0,1,1-12-12A12,12,0,0,1,140,128Zm56-12a12,12,0,1,0,12,12A12,12,0,0,0,196,116ZM60,116a12,12,0,1,0,12,12A12,12,0,0,0,60,116Z" /></symbol><symbol id="i-dots-three-fill" viewBox="0 0 256 256" fill="currentColor"><ns0:path xmlns:ns0="http://www.w3.org/2000/svg" d="M224,80H32A16,16,0,0,0,16,96v64a16,16,0,0,0,16,16H224a16,16,0,0,0,16-16V96A16,16,0,0,0,224,80ZM60,140a12,12,0,1,1,12-12A12,12,0,0,1,60,140Zm68,0a12,12,0,1,1,12-12A12,12,0,0,1,128,140Zm68,0a12,12,0,1,1,12-12A12,12,0,0,1,196,140Z" /></symbol><symbol id="i-magnifying-glass" viewBox="0 0 256 256" fill="currentColor"><ns0:path xmlns:ns0="http://www.w3.org/2000/svg" d="M229.66,218.34l-50.07-50.06a88.11,88.11,0,1,0-11.31,11.31l50.06,50.07a8,8,0,0,0,11.32-11.32ZM40,112a72,72,0,1,1,72,72A72.08,72.08,0,0,1,40,112Z" /></symbol><symbol id="i-magnifying-glass-fill" viewBox="0 0 256 256" fill="currentColor"><ns0:path xmlns:ns0="http://www.w3.org/2000/svg" d="M168,112a56,56,0,1,1-56-56A56,56,0,0,1,168,112Zm61.66,117.66a8,8,0,0,1-11.32,0l-50.06-50.07a88,88,0,1,1,11.32-11.31l50.06,50.06A8,8,0,0,1,229.66,229.66ZM112,184a72,72,0,1,0-72-72A72.08,72.08,0,0,0,112,184Z" /></symbol><symbol id="i-plus" viewBox="0 0 256 256" fill="currentColor"><ns0:path xmlns:ns0="http://www.w3.org/2000/svg" d="M224,128a8,8,0,0,1-8,8H136v80a8,8,0,0,1-16,0V136H40a8,8,0,0,1,0-16h80V40a8,8,0,0,1,16,0v80h80A8,8,0,0,1,224,128Z" /></symbol><symbol id="i-plus-fill" viewBox="0 0 256 256" fill="currentColor"><ns0:path xmlns:ns0="http://www.w3.org/2000/svg" d="M208,32H48A16,16,0,0,0,32,48V208a16,16,0,0,0,16,16H208a16,16,0,0,0,16-16V48A16,16,0,0,0,208,32ZM184,136H136v48a8,8,0,0,1-16,0V136H72a8,8,0,0,1,0-16h48V72a8,8,0,0,1,16,0v48h48a8,8,0,0,1,0,16Z" /></symbol><symbol id="i-check" viewBox="0 0 256 256" fill="currentColor"><ns0:path xmlns:ns0="http://www.w3.org/2000/svg" d="M229.66,77.66l-128,128a8,8,0,0,1-11.32,0l-56-56a8,8,0,0,1,11.32-11.32L96,188.69,218.34,66.34a8,8,0,0,1,11.32,11.32Z" /></symbol><symbol id="i-check-fill" viewBox="0 0 256 256" fill="currentColor"><ns0:path xmlns:ns0="http://www.w3.org/2000/svg" d="M216,40H40A16,16,0,0,0,24,56V200a16,16,0,0,0,16,16H216a16,16,0,0,0,16-16V56A16,16,0,0,0,216,40ZM205.66,85.66l-96,96a8,8,0,0,1-11.32,0l-40-40a8,8,0,0,1,11.32-11.32L104,164.69l90.34-90.35a8,8,0,0,1,11.32,11.32Z" /></symbol><symbol id="i-square" viewBox="0 0 256 256" fill="currentColor"><ns0:path xmlns:ns0="http://www.w3.org/2000/svg" d="M208,32H48A16,16,0,0,0,32,48V208a16,16,0,0,0,16,16H208a16,16,0,0,0,16-16V48A16,16,0,0,0,208,32Zm0,176H48V48H208V208Z" /></symbol><symbol id="i-square-fill" viewBox="0 0 256 256" fill="currentColor"><ns0:path xmlns:ns0="http://www.w3.org/2000/svg" d="M224,48V208a16,16,0,0,1-16,16H48a16,16,0,0,1-16-16V48A16,16,0,0,1,48,32H208A16,16,0,0,1,224,48Z" /></symbol><symbol id="i-check-square" viewBox="0 0 256 256" fill="currentColor"><ns0:path xmlns:ns0="http://www.w3.org/2000/svg" d="M173.66,98.34a8,8,0,0,1,0,11.32l-56,56a8,8,0,0,1-11.32,0l-24-24a8,8,0,0,1,11.32-11.32L112,148.69l50.34-50.35A8,8,0,0,1,173.66,98.34ZM224,48V208a16,16,0,0,1-16,16H48a16,16,0,0,1-16-16V48A16,16,0,0,1,48,32H208A16,16,0,0,1,224,48ZM208,208V48H48V208H208Z" /></symbol><symbol id="i-check-square-fill" viewBox="0 0 256 256" fill="currentColor"><ns0:path xmlns:ns0="http://www.w3.org/2000/svg" d="M208,32H48A16,16,0,0,0,32,48V208a16,16,0,0,0,16,16H208a16,16,0,0,0,16-16V48A16,16,0,0,0,208,32Zm-34.34,77.66-56,56a8,8,0,0,1-11.32,0l-24-24a8,8,0,0,1,11.32-11.32L112,148.69l50.34-50.35a8,8,0,0,1,11.32,11.32Z" /></symbol><symbol id="i-radio-button" viewBox="0 0 256 256" fill="currentColor"><ns0:path xmlns:ns0="http://www.w3.org/2000/svg" d="M128,24A104,104,0,1,0,232,128,104.11,104.11,0,0,0,128,24Zm0,192a88,88,0,1,1,88-88A88.1,88.1,0,0,1,128,216Zm0-144a56,56,0,1,0,56,56A56.06,56.06,0,0,0,128,72Zm0,96a40,40,0,1,1,40-40A40,40,0,0,1,128,168Z" /></symbol><symbol id="i-radio-button-fill" viewBox="0 0 256 256" fill="currentColor"><ns0:path xmlns:ns0="http://www.w3.org/2000/svg" d="M128,24A104,104,0,1,0,232,128,104.11,104.11,0,0,0,128,24Zm0,192a88,88,0,1,1,88-88A88.1,88.1,0,0,1,128,216Zm56-88a56,56,0,1,1-56-56A56.06,56.06,0,0,1,184,128Z" /></symbol><symbol id="i-eye" viewBox="0 0 256 256" fill="currentColor"><ns0:path xmlns:ns0="http://www.w3.org/2000/svg" d="M247.31,124.76c-.35-.79-8.82-19.58-27.65-38.41C194.57,61.26,162.88,48,128,48S61.43,61.26,36.34,86.35C17.51,105.18,9,124,8.69,124.76a8,8,0,0,0,0,6.5c.35.79,8.82,19.57,27.65,38.4C61.43,194.74,93.12,208,128,208s66.57-13.26,91.66-38.34c18.83-18.83,27.3-37.61,27.65-38.4A8,8,0,0,0,247.31,124.76ZM128,192c-30.78,0-57.67-11.19-79.93-33.25A133.47,133.47,0,0,1,25,128,133.33,133.33,0,0,1,48.07,97.25C70.33,75.19,97.22,64,128,64s57.67,11.19,79.93,33.25A133.46,133.46,0,0,1,231.05,128C223.84,141.46,192.43,192,128,192Zm0-112a48,48,0,1,0,48,48A48.05,48.05,0,0,0,128,80Zm0,80a32,32,0,1,1,32-32A32,32,0,0,1,128,160Z" /></symbol><symbol id="i-eye-fill" viewBox="0 0 256 256" fill="currentColor"><ns0:path xmlns:ns0="http://www.w3.org/2000/svg" d="M247.31,124.76c-.35-.79-8.82-19.58-27.65-38.41C194.57,61.26,162.88,48,128,48S61.43,61.26,36.34,86.35C17.51,105.18,9,124,8.69,124.76a8,8,0,0,0,0,6.5c.35.79,8.82,19.57,27.65,38.4C61.43,194.74,93.12,208,128,208s66.57-13.26,91.66-38.34c18.83-18.83,27.3-37.61,27.65-38.4A8,8,0,0,0,247.31,124.76ZM128,168a40,40,0,1,1,40-40A40,40,0,0,1,128,168Z" /></symbol><symbol id="i-eye-slash" viewBox="0 0 256 256" fill="currentColor"><ns0:path xmlns:ns0="http://www.w3.org/2000/svg" d="M53.92,34.62A8,8,0,1,0,42.08,45.38L61.32,66.55C25,88.84,9.38,123.2,8.69,124.76a8,8,0,0,0,0,6.5c.35.79,8.82,19.57,27.65,38.4C61.43,194.74,93.12,208,128,208a127.11,127.11,0,0,0,52.07-10.83l22,24.21a8,8,0,1,0,11.84-10.76Zm47.33,75.84,41.67,45.85a32,32,0,0,1-41.67-45.85ZM128,192c-30.78,0-57.67-11.19-79.93-33.25A133.16,133.16,0,0,1,25,128c4.69-8.79,19.66-33.39,47.35-49.38l18,19.75a48,48,0,0,0,63.66,70l14.73,16.2A112,112,0,0,1,128,192Zm6-95.43a8,8,0,0,1,3-15.72,48.16,48.16,0,0,1,38.77,42.64,8,8,0,0,1-7.22,8.71,6.39,6.39,0,0,1-.75,0,8,8,0,0,1-8-7.26A32.09,32.09,0,0,0,134,96.57Zm113.28,34.69c-.42.94-10.55,23.37-33.36,43.8a8,8,0,1,1-10.67-11.92A132.77,132.77,0,0,0,231.05,128a133.15,133.15,0,0,0-23.12-30.77C185.67,75.19,158.78,64,128,64a118.37,118.37,0,0,0-19.36,1.57A8,8,0,1,1,106,49.79,134,134,0,0,1,128,48c34.88,0,66.57,13.26,91.66,38.35,18.83,18.83,27.3,37.62,27.65,38.41A8,8,0,0,1,247.31,131.26Z" /></symbol><symbol id="i-eye-slash-fill" viewBox="0 0 256 256" fill="currentColor"><ns0:path xmlns:ns0="http://www.w3.org/2000/svg" d="M96.68,57.87a4,4,0,0,1,2.08-6.6A130.13,130.13,0,0,1,128,48c34.88,0,66.57,13.26,91.66,38.35,18.83,18.83,27.3,37.62,27.65,38.41a8,8,0,0,1,0,6.5c-.35.79-8.82,19.57-27.65,38.4q-4.28,4.26-8.79,8.07a4,4,0,0,1-5.55-.36ZM213.92,210.62a8,8,0,1,1-11.84,10.76L180,197.13A127.21,127.21,0,0,1,128,208c-34.88,0-66.57-13.26-91.66-38.34C17.51,150.83,9,132.05,8.69,131.26a8,8,0,0,1,0-6.5C9,124,17.51,105.18,36.34,86.35a135,135,0,0,1,25-19.78L42.08,45.38A8,8,0,1,1,53.92,34.62Zm-65.49-48.25-52.69-58a40,40,0,0,0,52.69,58Z" /></symbol><symbol id="i-lock-key" viewBox="0 0 256 256" fill="currentColor"><ns0:path xmlns:ns0="http://www.w3.org/2000/svg" d="M128,112a28,28,0,0,0-8,54.83V184a8,8,0,0,0,16,0V166.83A28,28,0,0,0,128,112Zm0,40a12,12,0,1,1,12-12A12,12,0,0,1,128,152Zm80-72H176V56a48,48,0,0,0-96,0V80H48A16,16,0,0,0,32,96V208a16,16,0,0,0,16,16H208a16,16,0,0,0,16-16V96A16,16,0,0,0,208,80ZM96,56a32,32,0,0,1,64,0V80H96ZM208,208H48V96H208V208Z" /></symbol><symbol id="i-lock-key-fill" viewBox="0 0 256 256" fill="currentColor"><ns0:path xmlns:ns0="http://www.w3.org/2000/svg" d="M208,80H176V56a48,48,0,0,0-96,0V80H48A16,16,0,0,0,32,96V208a16,16,0,0,0,16,16H208a16,16,0,0,0,16-16V96A16,16,0,0,0,208,80Zm-72,78.63V184a8,8,0,0,1-16,0V158.63a24,24,0,1,1,16,0ZM160,80H96V56a32,32,0,0,1,64,0Z" /></symbol><symbol id="i-warning" viewBox="0 0 256 256" fill="currentColor"><ns0:path xmlns:ns0="http://www.w3.org/2000/svg" d="M236.8,188.09,149.35,36.22h0a24.76,24.76,0,0,0-42.7,0L19.2,188.09a23.51,23.51,0,0,0,0,23.72A24.35,24.35,0,0,0,40.55,224h174.9a24.35,24.35,0,0,0,21.33-12.19A23.51,23.51,0,0,0,236.8,188.09ZM222.93,203.8a8.5,8.5,0,0,1-7.48,4.2H40.55a8.5,8.5,0,0,1-7.48-4.2,7.59,7.59,0,0,1,0-7.72L120.52,44.21a8.75,8.75,0,0,1,15,0l87.45,151.87A7.59,7.59,0,0,1,222.93,203.8ZM120,144V104a8,8,0,0,1,16,0v40a8,8,0,0,1-16,0Zm20,36a12,12,0,1,1-12-12A12,12,0,0,1,140,180Z" /></symbol><symbol id="i-warning-fill" viewBox="0 0 256 256" fill="currentColor"><ns0:path xmlns:ns0="http://www.w3.org/2000/svg" d="M236.8,188.09,149.35,36.22h0a24.76,24.76,0,0,0-42.7,0L19.2,188.09a23.51,23.51,0,0,0,0,23.72A24.35,24.35,0,0,0,40.55,224h174.9a24.35,24.35,0,0,0,21.33-12.19A23.51,23.51,0,0,0,236.8,188.09ZM120,104a8,8,0,0,1,16,0v40a8,8,0,0,1-16,0Zm8,88a12,12,0,1,1,12-12A12,12,0,0,1,128,192Z" /></symbol><symbol id="i-copy" viewBox="0 0 256 256" fill="currentColor"><ns0:path xmlns:ns0="http://www.w3.org/2000/svg" d="M216,32H88a8,8,0,0,0-8,8V80H40a8,8,0,0,0-8,8V216a8,8,0,0,0,8,8H168a8,8,0,0,0,8-8V176h40a8,8,0,0,0,8-8V40A8,8,0,0,0,216,32ZM160,208H48V96H160Zm48-48H176V88a8,8,0,0,0-8-8H96V48H208Z" /></symbol><symbol id="i-copy-fill" viewBox="0 0 256 256" fill="currentColor"><ns0:path xmlns:ns0="http://www.w3.org/2000/svg" d="M216,32H88a8,8,0,0,0-8,8V80H40a8,8,0,0,0-8,8V216a8,8,0,0,0,8,8H168a8,8,0,0,0,8-8V176h40a8,8,0,0,0,8-8V40A8,8,0,0,0,216,32Zm-8,128H176V88a8,8,0,0,0-8-8H96V48H208Z" /></symbol><symbol id="i-arrow-square-out" viewBox="0 0 256 256" fill="currentColor"><ns0:path xmlns:ns0="http://www.w3.org/2000/svg" d="M224,104a8,8,0,0,1-16,0V59.32l-66.33,66.34a8,8,0,0,1-11.32-11.32L196.68,48H152a8,8,0,0,1,0-16h64a8,8,0,0,1,8,8Zm-40,24a8,8,0,0,0-8,8v72H48V80h72a8,8,0,0,0,0-16H48A16,16,0,0,0,32,80V208a16,16,0,0,0,16,16H176a16,16,0,0,0,16-16V136A8,8,0,0,0,184,128Z" /></symbol><symbol id="i-arrow-square-out-fill" viewBox="0 0 256 256" fill="currentColor"><ns0:path xmlns:ns0="http://www.w3.org/2000/svg" d="M192,136v72a16,16,0,0,1-16,16H48a16,16,0,0,1-16-16V80A16,16,0,0,1,48,64h72a8,8,0,0,1,0,16H48V208H176V136a8,8,0,0,1,16,0Zm32-96a8,8,0,0,0-8-8H152a8,8,0,0,0-5.66,13.66L172.69,72l-42.35,42.34a8,8,0,0,0,11.32,11.32L184,83.31l26.34,26.35A8,8,0,0,0,224,104Z" /></symbol><symbol id="i-check-circle-fill" viewBox="0 0 256 256" fill="currentColor"><ns0:path xmlns:ns0="http://www.w3.org/2000/svg" d="M128,24A104,104,0,1,0,232,128,104.11,104.11,0,0,0,128,24Zm45.66,85.66-56,56a8,8,0,0,1-11.32,0l-24-24a8,8,0,0,1,11.32-11.32L112,148.69l50.34-50.35a8,8,0,0,1,11.32,11.32Z" /></symbol><symbol id="i-x-circle-fill" viewBox="0 0 256 256" fill="currentColor"><ns0:path xmlns:ns0="http://www.w3.org/2000/svg" d="M128,24A104,104,0,1,0,232,128,104.11,104.11,0,0,0,128,24Zm37.66,130.34a8,8,0,0,1-11.32,11.32L128,139.31l-26.34,26.35a8,8,0,0,1-11.32-11.32L116.69,128,90.34,101.66a8,8,0,0,1,11.32-11.32L128,116.69l26.34-26.35a8,8,0,0,1,11.32,11.32L139.31,128Z" /></symbol><symbol id="i-file-text" viewBox="0 0 256 256" fill="currentColor"><ns0:path xmlns:ns0="http://www.w3.org/2000/svg" d="M213.66,82.34l-56-56A8,8,0,0,0,152,24H56A16,16,0,0,0,40,40V216a16,16,0,0,0,16,16H200a16,16,0,0,0,16-16V88A8,8,0,0,0,213.66,82.34ZM160,51.31,188.69,80H160ZM200,216H56V40h88V88a8,8,0,0,0,8,8h48V216Zm-32-80a8,8,0,0,1-8,8H96a8,8,0,0,1,0-16h64A8,8,0,0,1,168,136Zm0,32a8,8,0,0,1-8,8H96a8,8,0,0,1,0-16h64A8,8,0,0,1,168,168Z" /></symbol><symbol id="i-image" viewBox="0 0 256 256" fill="currentColor"><ns0:path xmlns:ns0="http://www.w3.org/2000/svg" d="M216,40H40A16,16,0,0,0,24,56V200a16,16,0,0,0,16,16H216a16,16,0,0,0,16-16V56A16,16,0,0,0,216,40Zm0,16V158.75l-26.07-26.06a16,16,0,0,0-22.63,0l-20,20-44-44a16,16,0,0,0-22.62,0L40,149.37V56ZM40,172l52-52,80,80H40Zm176,28H194.63l-36-36,20-20L216,181.38V200ZM144,100a12,12,0,1,1,12,12A12,12,0,0,1,144,100Z" /></symbol>
  </defs>
  <title>Hermes common control icon masters</title>
<rect width="1600" height="1120" fill="#F3F5F9"/><text x="82" y="82" font-family="Inter,Arial,sans-serif" font-size="20" font-weight="700" letter-spacing="5" fill="#2A9FE8">HERMES MOBILE · ROUND 07</text><text x="82" y="140" font-family="Inter,Arial,sans-serif" font-size="44" font-weight="700" fill="#1D2637">Global controls &amp; feedback icons</text><text x="82" y="180" font-family="Inter,Arial,sans-serif" font-size="21" fill="#667287">One optical weight · closed geometry · no crossing strokes · no rectangular press overlay</text><g transform="translate(82 226)"><rect width="150" height="348" rx="28" fill="#FFFFFF" filter="url(#shadow)"/><text x="16" y="32" font-family="Inter,Arial,sans-serif" font-size="10.5" font-weight="700" letter-spacing="1" fill="#8B96A9">NAVIGATION</text><rect x="16" y="50" width="118" height="142" rx="27" fill="#F6F8FC"/><use href="#i-arrow-left" x="42" y="84" width="66" height="66" color="#667287" opacity="1"/><circle cx="112" cy="168" r="23" fill="#EEF1F5"/><use href="#i-arrow-left-fill" x="99" y="155" width="26" height="26" color="#667287" opacity="1"/><text x="16" y="230" font-family="Inter,Arial,sans-serif" font-size="15" font-weight="700" fill="#1D2637">Back</text><text x="16" y="260" font-family="Inter,Arial,sans-serif" font-size="13" fill="#8A95A7">24 px master</text><use href="#i-arrow-left" x="16" y="289" width="24" height="24" color="#667287" opacity="1"/><text x="52" y="307" font-family="Inter,Arial,sans-serif" font-size="12.5" fill="#8A95A7">actual size</text></g><g transform="translate(242 226)"><rect width="150" height="348" rx="28" fill="#FFFFFF" filter="url(#shadow)"/><text x="16" y="32" font-family="Inter,Arial,sans-serif" font-size="10.5" font-weight="700" letter-spacing="1" fill="#8B96A9">NAVIGATION</text><rect x="16" y="50" width="118" height="142" rx="27" fill="#F6F8FC"/><use href="#i-caret-right" x="42" y="84" width="66" height="66" color="#667287" opacity="1"/><circle cx="112" cy="168" r="23" fill="#EEF1F5"/><use href="#i-caret-right-fill" x="99" y="155" width="26" height="26" color="#667287" opacity="1"/><text x="16" y="230" font-family="Inter,Arial,sans-serif" font-size="15" font-weight="700" fill="#1D2637">Next level</text><text x="16" y="260" font-family="Inter,Arial,sans-serif" font-size="13" fill="#8A95A7">24 px master</text><use href="#i-caret-right" x="16" y="289" width="24" height="24" color="#667287" opacity="1"/><text x="52" y="307" font-family="Inter,Arial,sans-serif" font-size="12.5" fill="#8A95A7">actual size</text></g><g transform="translate(402 226)"><rect width="150" height="348" rx="28" fill="#FFFFFF" filter="url(#shadow)"/><text x="16" y="32" font-family="Inter,Arial,sans-serif" font-size="10.5" font-weight="700" letter-spacing="1" fill="#8B96A9">NAVIGATION</text><rect x="16" y="50" width="118" height="142" rx="27" fill="#F6F8FC"/><use href="#i-caret-down" x="42" y="84" width="66" height="66" color="#667287" opacity="1"/><circle cx="112" cy="168" r="23" fill="#EEF1F5"/><use href="#i-caret-down-fill" x="99" y="155" width="26" height="26" color="#667287" opacity="1"/><text x="16" y="230" font-family="Inter,Arial,sans-serif" font-size="15" font-weight="700" fill="#1D2637">Expand</text><text x="16" y="260" font-family="Inter,Arial,sans-serif" font-size="13" fill="#8A95A7">24 px master</text><use href="#i-caret-down" x="16" y="289" width="24" height="24" color="#667287" opacity="1"/><text x="52" y="307" font-family="Inter,Arial,sans-serif" font-size="12.5" fill="#8A95A7">actual size</text></g><g transform="translate(562 226)"><rect width="150" height="348" rx="28" fill="#FFFFFF" filter="url(#shadow)"/><text x="16" y="32" font-family="Inter,Arial,sans-serif" font-size="10.5" font-weight="700" letter-spacing="1" fill="#8B96A9">NAVIGATION</text><rect x="16" y="50" width="118" height="142" rx="27" fill="#F6F8FC"/><use href="#i-caret-up" x="42" y="84" width="66" height="66" color="#667287" opacity="1"/><circle cx="112" cy="168" r="23" fill="#EEF1F5"/><use href="#i-caret-up-fill" x="99" y="155" width="26" height="26" color="#667287" opacity="1"/><text x="16" y="230" font-family="Inter,Arial,sans-serif" font-size="15" font-weight="700" fill="#1D2637">Collapse</text><text x="16" y="260" font-family="Inter,Arial,sans-serif" font-size="13" fill="#8A95A7">24 px master</text><use href="#i-caret-up" x="16" y="289" width="24" height="24" color="#667287" opacity="1"/><text x="52" y="307" font-family="Inter,Arial,sans-serif" font-size="12.5" fill="#8A95A7">actual size</text></g><g transform="translate(722 226)"><rect width="150" height="348" rx="28" fill="#FFFFFF" filter="url(#shadow)"/><text x="16" y="32" font-family="Inter,Arial,sans-serif" font-size="10.5" font-weight="700" letter-spacing="1" fill="#8B96A9">NAVIGATION</text><rect x="16" y="50" width="118" height="142" rx="27" fill="#F6F8FC"/><use href="#i-x" x="42" y="84" width="66" height="66" color="#667287" opacity="1"/><circle cx="112" cy="168" r="23" fill="#EEF1F5"/><use href="#i-x-fill" x="99" y="155" width="26" height="26" color="#667287" opacity="1"/><text x="16" y="230" font-family="Inter,Arial,sans-serif" font-size="15" font-weight="700" fill="#1D2637">Close</text><text x="16" y="260" font-family="Inter,Arial,sans-serif" font-size="13" fill="#8A95A7">24 px master</text><use href="#i-x" x="16" y="289" width="24" height="24" color="#667287" opacity="1"/><text x="52" y="307" font-family="Inter,Arial,sans-serif" font-size="12.5" fill="#8A95A7">actual size</text></g><g transform="translate(882 226)"><rect width="150" height="348" rx="28" fill="#FFFFFF" filter="url(#shadow)"/><text x="16" y="32" font-family="Inter,Arial,sans-serif" font-size="10.5" font-weight="700" letter-spacing="1" fill="#8B96A9">NAVIGATION</text><rect x="16" y="50" width="118" height="142" rx="27" fill="#F6F8FC"/><use href="#i-dots-three" x="42" y="84" width="66" height="66" color="#667287" opacity="1"/><circle cx="112" cy="168" r="23" fill="#EEF1F5"/><use href="#i-dots-three-fill" x="99" y="155" width="26" height="26" color="#667287" opacity="1"/><text x="16" y="230" font-family="Inter,Arial,sans-serif" font-size="15" font-weight="700" fill="#1D2637">More</text><text x="16" y="260" font-family="Inter,Arial,sans-serif" font-size="13" fill="#8A95A7">24 px master</text><use href="#i-dots-three" x="16" y="289" width="24" height="24" color="#667287" opacity="1"/><text x="52" y="307" font-family="Inter,Arial,sans-serif" font-size="12.5" fill="#8A95A7">actual size</text></g><g transform="translate(1042 226)"><rect width="150" height="348" rx="28" fill="#FFFFFF" filter="url(#shadow)"/><text x="16" y="32" font-family="Inter,Arial,sans-serif" font-size="10.5" font-weight="700" letter-spacing="1" fill="#8B96A9">ACTION</text><rect x="16" y="50" width="118" height="142" rx="27" fill="#F6F8FC"/><use href="#i-magnifying-glass" x="42" y="84" width="66" height="66" color="#667287" opacity="1"/><circle cx="112" cy="168" r="23" fill="#E5F3FD"/><use href="#i-magnifying-glass-fill" x="99" y="155" width="26" height="26" color="#2A9FE8" opacity="1"/><text x="16" y="230" font-family="Inter,Arial,sans-serif" font-size="15" font-weight="700" fill="#1D2637">Search</text><text x="16" y="260" font-family="Inter,Arial,sans-serif" font-size="13" fill="#8A95A7">24 px master</text><use href="#i-magnifying-glass" x="16" y="289" width="24" height="24" color="#667287" opacity="1"/><text x="52" y="307" font-family="Inter,Arial,sans-serif" font-size="12.5" fill="#8A95A7">actual size</text></g><g transform="translate(1202 226)"><rect width="150" height="348" rx="28" fill="#FFFFFF" filter="url(#shadow)"/><text x="16" y="32" font-family="Inter,Arial,sans-serif" font-size="10.5" font-weight="700" letter-spacing="1" fill="#8B96A9">ACTION</text><rect x="16" y="50" width="118" height="142" rx="27" fill="#F6F8FC"/><use href="#i-plus" x="42" y="84" width="66" height="66" color="#667287" opacity="1"/><circle cx="112" cy="168" r="23" fill="#E5F3FD"/><use href="#i-plus-fill" x="99" y="155" width="26" height="26" color="#2A9FE8" opacity="1"/><text x="16" y="230" font-family="Inter,Arial,sans-serif" font-size="15" font-weight="700" fill="#1D2637">Add</text><text x="16" y="260" font-family="Inter,Arial,sans-serif" font-size="13" fill="#8A95A7">24 px master</text><use href="#i-plus" x="16" y="289" width="24" height="24" color="#667287" opacity="1"/><text x="52" y="307" font-family="Inter,Arial,sans-serif" font-size="12.5" fill="#8A95A7">actual size</text></g><g transform="translate(1362 226)"><rect width="150" height="348" rx="28" fill="#FFFFFF" filter="url(#shadow)"/><text x="16" y="32" font-family="Inter,Arial,sans-serif" font-size="10.5" font-weight="700" letter-spacing="1" fill="#8B96A9">SELECTION</text><rect x="16" y="50" width="118" height="142" rx="27" fill="#F6F8FC"/><use href="#i-check" x="42" y="84" width="66" height="66" color="#667287" opacity="1"/><circle cx="112" cy="168" r="23" fill="#E5F3FD"/><use href="#i-check-fill" x="99" y="155" width="26" height="26" color="#2A9FE8" opacity="1"/><text x="16" y="230" font-family="Inter,Arial,sans-serif" font-size="15" font-weight="700" fill="#1D2637">Confirm</text><text x="16" y="260" font-family="Inter,Arial,sans-serif" font-size="13" fill="#8A95A7">24 px master</text><use href="#i-check" x="16" y="289" width="24" height="24" color="#667287" opacity="1"/><text x="52" y="307" font-family="Inter,Arial,sans-serif" font-size="12.5" fill="#8A95A7">actual size</text></g><g transform="translate(82 598)"><rect width="150" height="348" rx="28" fill="#FFFFFF" filter="url(#shadow)"/><text x="16" y="32" font-family="Inter,Arial,sans-serif" font-size="10.5" font-weight="700" letter-spacing="1" fill="#8B96A9">SELECTION</text><rect x="16" y="50" width="118" height="142" rx="27" fill="#F6F8FC"/><use href="#i-square" x="42" y="84" width="66" height="66" color="#667287" opacity="1"/><circle cx="112" cy="168" r="23" fill="#EEF1F5"/><use href="#i-square-fill" x="99" y="155" width="26" height="26" color="#667287" opacity="1"/><text x="16" y="230" font-family="Inter,Arial,sans-serif" font-size="15" font-weight="700" fill="#1D2637">Unchecked</text><text x="16" y="260" font-family="Inter,Arial,sans-serif" font-size="13" fill="#8A95A7">24 px master</text><use href="#i-square" x="16" y="289" width="24" height="24" color="#667287" opacity="1"/><text x="52" y="307" font-family="Inter,Arial,sans-serif" font-size="12.5" fill="#8A95A7">actual size</text></g><g transform="translate(242 598)"><rect width="150" height="348" rx="28" fill="#FFFFFF" filter="url(#shadow)"/><text x="16" y="32" font-family="Inter,Arial,sans-serif" font-size="10.5" font-weight="700" letter-spacing="1" fill="#8B96A9">SELECTION</text><rect x="16" y="50" width="118" height="142" rx="27" fill="#F6F8FC"/><use href="#i-check-square" x="42" y="84" width="66" height="66" color="#667287" opacity="1"/><circle cx="112" cy="168" r="23" fill="#E5F3FD"/><use href="#i-check-square-fill" x="99" y="155" width="26" height="26" color="#2A9FE8" opacity="1"/><text x="16" y="230" font-family="Inter,Arial,sans-serif" font-size="15" font-weight="700" fill="#1D2637">Checked</text><text x="16" y="260" font-family="Inter,Arial,sans-serif" font-size="13" fill="#8A95A7">24 px master</text><use href="#i-check-square" x="16" y="289" width="24" height="24" color="#667287" opacity="1"/><text x="52" y="307" font-family="Inter,Arial,sans-serif" font-size="12.5" fill="#8A95A7">actual size</text></g><g transform="translate(402 598)"><rect width="150" height="348" rx="28" fill="#FFFFFF" filter="url(#shadow)"/><text x="16" y="32" font-family="Inter,Arial,sans-serif" font-size="10.5" font-weight="700" letter-spacing="1" fill="#8B96A9">SELECTION</text><rect x="16" y="50" width="118" height="142" rx="27" fill="#F6F8FC"/><use href="#i-radio-button" x="42" y="84" width="66" height="66" color="#667287" opacity="1"/><circle cx="112" cy="168" r="23" fill="#E5F3FD"/><use href="#i-radio-button-fill" x="99" y="155" width="26" height="26" color="#2A9FE8" opacity="1"/><text x="16" y="230" font-family="Inter,Arial,sans-serif" font-size="15" font-weight="700" fill="#1D2637">Selected</text><text x="16" y="260" font-family="Inter,Arial,sans-serif" font-size="13" fill="#8A95A7">24 px master</text><use href="#i-radio-button" x="16" y="289" width="24" height="24" color="#667287" opacity="1"/><text x="52" y="307" font-family="Inter,Arial,sans-serif" font-size="12.5" fill="#8A95A7">actual size</text></g><g transform="translate(562 598)"><rect width="150" height="348" rx="28" fill="#FFFFFF" filter="url(#shadow)"/><text x="16" y="32" font-family="Inter,Arial,sans-serif" font-size="10.5" font-weight="700" letter-spacing="1" fill="#8B96A9">PRIVACY</text><rect x="16" y="50" width="118" height="142" rx="27" fill="#F6F8FC"/><use href="#i-eye" x="42" y="84" width="66" height="66" color="#667287" opacity="1"/><circle cx="112" cy="168" r="23" fill="#EEF1F5"/><use href="#i-eye-fill" x="99" y="155" width="26" height="26" color="#667287" opacity="1"/><text x="16" y="230" font-family="Inter,Arial,sans-serif" font-size="15" font-weight="700" fill="#1D2637">Show</text><text x="16" y="260" font-family="Inter,Arial,sans-serif" font-size="13" fill="#8A95A7">24 px master</text><use href="#i-eye" x="16" y="289" width="24" height="24" color="#667287" opacity="1"/><text x="52" y="307" font-family="Inter,Arial,sans-serif" font-size="12.5" fill="#8A95A7">actual size</text></g><g transform="translate(722 598)"><rect width="150" height="348" rx="28" fill="#FFFFFF" filter="url(#shadow)"/><text x="16" y="32" font-family="Inter,Arial,sans-serif" font-size="10.5" font-weight="700" letter-spacing="1" fill="#8B96A9">PRIVACY</text><rect x="16" y="50" width="118" height="142" rx="27" fill="#F6F8FC"/><use href="#i-eye-slash" x="42" y="84" width="66" height="66" color="#667287" opacity="1"/><circle cx="112" cy="168" r="23" fill="#EEF1F5"/><use href="#i-eye-slash-fill" x="99" y="155" width="26" height="26" color="#667287" opacity="1"/><text x="16" y="230" font-family="Inter,Arial,sans-serif" font-size="15" font-weight="700" fill="#1D2637">Hide</text><text x="16" y="260" font-family="Inter,Arial,sans-serif" font-size="13" fill="#8A95A7">24 px master</text><use href="#i-eye-slash" x="16" y="289" width="24" height="24" color="#667287" opacity="1"/><text x="52" y="307" font-family="Inter,Arial,sans-serif" font-size="12.5" fill="#8A95A7">actual size</text></g><g transform="translate(882 598)"><rect width="150" height="348" rx="28" fill="#FFFFFF" filter="url(#shadow)"/><text x="16" y="32" font-family="Inter,Arial,sans-serif" font-size="10.5" font-weight="700" letter-spacing="1" fill="#8B96A9">PRIVACY</text><rect x="16" y="50" width="118" height="142" rx="27" fill="#F6F8FC"/><use href="#i-lock-key" x="42" y="84" width="66" height="66" color="#667287" opacity="1"/><circle cx="112" cy="168" r="23" fill="#FFF2D7"/><use href="#i-lock-key-fill" x="99" y="155" width="26" height="26" color="#E79A20" opacity="1"/><text x="16" y="230" font-family="Inter,Arial,sans-serif" font-size="15" font-weight="700" fill="#1D2637">Locked</text><text x="16" y="260" font-family="Inter,Arial,sans-serif" font-size="13" fill="#8A95A7">24 px master</text><use href="#i-lock-key" x="16" y="289" width="24" height="24" color="#667287" opacity="1"/><text x="52" y="307" font-family="Inter,Arial,sans-serif" font-size="12.5" fill="#8A95A7">actual size</text></g><g transform="translate(1042 598)"><rect width="150" height="348" rx="28" fill="#FFFFFF" filter="url(#shadow)"/><text x="16" y="32" font-family="Inter,Arial,sans-serif" font-size="10.5" font-weight="700" letter-spacing="1" fill="#8B96A9">FEEDBACK</text><rect x="16" y="50" width="118" height="142" rx="27" fill="#F6F8FC"/><use href="#i-warning" x="42" y="84" width="66" height="66" color="#667287" opacity="1"/><circle cx="112" cy="168" r="23" fill="#FFF2D7"/><use href="#i-warning-fill" x="99" y="155" width="26" height="26" color="#E79A20" opacity="1"/><text x="16" y="230" font-family="Inter,Arial,sans-serif" font-size="15" font-weight="700" fill="#1D2637">Warning</text><text x="16" y="260" font-family="Inter,Arial,sans-serif" font-size="13" fill="#8A95A7">24 px master</text><use href="#i-warning" x="16" y="289" width="24" height="24" color="#667287" opacity="1"/><text x="52" y="307" font-family="Inter,Arial,sans-serif" font-size="12.5" fill="#8A95A7">actual size</text></g><g transform="translate(1202 598)"><rect width="150" height="348" rx="28" fill="#FFFFFF" filter="url(#shadow)"/><text x="16" y="32" font-family="Inter,Arial,sans-serif" font-size="10.5" font-weight="700" letter-spacing="1" fill="#8B96A9">UTILITY</text><rect x="16" y="50" width="118" height="142" rx="27" fill="#F6F8FC"/><use href="#i-copy" x="42" y="84" width="66" height="66" color="#667287" opacity="1"/><circle cx="112" cy="168" r="23" fill="#E5F3FD"/><use href="#i-copy-fill" x="99" y="155" width="26" height="26" color="#2A9FE8" opacity="1"/><text x="16" y="230" font-family="Inter,Arial,sans-serif" font-size="15" font-weight="700" fill="#1D2637">Copy</text><text x="16" y="260" font-family="Inter,Arial,sans-serif" font-size="13" fill="#8A95A7">24 px master</text><use href="#i-copy" x="16" y="289" width="24" height="24" color="#667287" opacity="1"/><text x="52" y="307" font-family="Inter,Arial,sans-serif" font-size="12.5" fill="#8A95A7">actual size</text></g><g transform="translate(1362 598)"><rect width="150" height="348" rx="28" fill="#FFFFFF" filter="url(#shadow)"/><text x="16" y="32" font-family="Inter,Arial,sans-serif" font-size="10.5" font-weight="700" letter-spacing="1" fill="#8B96A9">UTILITY</text><rect x="16" y="50" width="118" height="142" rx="27" fill="#F6F8FC"/><use href="#i-arrow-square-out" x="42" y="84" width="66" height="66" color="#667287" opacity="1"/><circle cx="112" cy="168" r="23" fill="#E5F3FD"/><use href="#i-arrow-square-out-fill" x="99" y="155" width="26" height="26" color="#2A9FE8" opacity="1"/><text x="16" y="230" font-family="Inter,Arial,sans-serif" font-size="15" font-weight="700" fill="#1D2637">Open outside</text><text x="16" y="260" font-family="Inter,Arial,sans-serif" font-size="13" fill="#8A95A7">24 px master</text><use href="#i-arrow-square-out" x="16" y="289" width="24" height="24" color="#667287" opacity="1"/><text x="52" y="307" font-family="Inter,Arial,sans-serif" font-size="12.5" fill="#8A95A7">actual size</text></g><g transform="translate(82 1000)"><rect width="1436" height="72" rx="28" fill="#FFFFFF" filter="url(#softShadow)"/><circle cx="36" cy="36" r="7" fill="#2A9FE8"/><text x="56" y="43" font-family="Inter,Arial,sans-serif" font-size="16" font-weight="700" fill="#1D2637">Outline</text><text x="134" y="43" font-family="Inter,Arial,sans-serif" font-size="15" fill="#667287">default control</text><circle cx="386" cy="36" r="7" fill="#2A9FE8"/><text x="406" y="43" font-family="Inter,Arial,sans-serif" font-size="16" font-weight="700" fill="#1D2637">Fill</text><text x="484" y="43" font-family="Inter,Arial,sans-serif" font-size="15" fill="#667287">selected / active</text><circle cx="736" cy="36" r="7" fill="#24B98A"/><text x="756" y="43" font-family="Inter,Arial,sans-serif" font-size="16" font-weight="700" fill="#1D2637">Scale</text><text x="834" y="43" font-family="Inter,Arial,sans-serif" font-size="15" fill="#667287">0.96 on press</text><circle cx="1086" cy="36" r="7" fill="#24B98A"/><text x="1106" y="43" font-family="Inter,Arial,sans-serif" font-size="16" font-weight="700" fill="#1D2637">Ripple</text><text x="1184" y="43" font-family="Inter,Arial,sans-serif" font-size="15" fill="#667287">bounded shape disabled</text></g></svg>