<svg xmlns="http://www.w3.org/2000/svg" width="1600" height="1140" viewBox="0 0 1600 1140">
  <defs>
    <filter id="shadow" x="-30%" y="-30%" width="160%" height="190%"><feDropShadow dx="0" dy="14" stdDeviation="24" flood-color="#273248" flood-opacity="0.11"/></filter>
    <filter id="softShadow" x="-40%" y="-40%" width="180%" height="220%"><feDropShadow dx="0" dy="7" stdDeviation="13" flood-color="#273248" flood-opacity="0.11"/></filter>
    <linearGradient id="avatar" x1="0" y1="0" x2="1" y2="1"><stop stop-color="#3578F6"/><stop offset="1" stop-color="#20B7C3"/></linearGradient>
    <symbol id="i-camera-plus" viewBox="0 0 256 256" fill="currentColor"><ns0:path xmlns:ns0="http://www.w3.org/2000/svg" d="M168,136a8,8,0,0,1-8,8H136v24a8,8,0,0,1-16,0V144H96a8,8,0,0,1,0-16h24V104a8,8,0,0,1,16,0v24h24A8,8,0,0,1,168,136Zm64-56V192a24,24,0,0,1-24,24H48a24,24,0,0,1-24-24V80A24,24,0,0,1,48,56H75.72L87,39.12A16,16,0,0,1,100.28,32h55.44A16,16,0,0,1,169,39.12L180.28,56H208A24,24,0,0,1,232,80Zm-16,0a8,8,0,0,0-8-8H176a8,8,0,0,1-6.66-3.56L155.72,48H100.28L86.66,68.44A8,8,0,0,1,80,72H48a8,8,0,0,0-8,8V192a8,8,0,0,0,8,8H208a8,8,0,0,0,8-8Z" /></symbol><symbol id="i-camera-plus-fill" viewBox="0 0 256 256" fill="currentColor"><ns0:path xmlns:ns0="http://www.w3.org/2000/svg" d="M208,56H180.28L169,39.12A16,16,0,0,0,155.72,32H100.28A16,16,0,0,0,87,39.12L75.72,56H48A24,24,0,0,0,24,80V192a24,24,0,0,0,24,24H208a24,24,0,0,0,24-24V80A24,24,0,0,0,208,56Zm-48,88H136v24a8,8,0,0,1-16,0V144H96a8,8,0,0,1,0-16h24V104a8,8,0,0,1,16,0v24h24a8,8,0,0,1,0,16Z" /></symbol><symbol id="i-pencil-simple" viewBox="0 0 256 256" fill="currentColor"><ns0:path xmlns:ns0="http://www.w3.org/2000/svg" d="M227.31,73.37,182.63,28.68a16,16,0,0,0-22.63,0L36.69,152A15.86,15.86,0,0,0,32,163.31V208a16,16,0,0,0,16,16H92.69A15.86,15.86,0,0,0,104,219.31L227.31,96a16,16,0,0,0,0-22.63ZM92.69,208H48V163.31l88-88L180.69,120ZM192,108.68,147.31,64l24-24L216,84.68Z" /></symbol><symbol id="i-pencil-simple-fill" viewBox="0 0 256 256" fill="currentColor"><ns0:path xmlns:ns0="http://www.w3.org/2000/svg" d="M227.31,73.37,182.63,28.68a16,16,0,0,0-22.63,0L36.69,152A15.86,15.86,0,0,0,32,163.31V208a16,16,0,0,0,16,16H92.69A15.86,15.86,0,0,0,104,219.31L227.31,96a16,16,0,0,0,0-22.63ZM192,108.68,147.31,64l24-24L216,84.68Z" /></symbol><symbol id="i-gear-six" viewBox="0 0 256 256" fill="currentColor"><ns0:path xmlns:ns0="http://www.w3.org/2000/svg" d="M128,80a48,48,0,1,0,48,48A48.05,48.05,0,0,0,128,80Zm0,80a32,32,0,1,1,32-32A32,32,0,0,1,128,160Zm109.94-52.79a8,8,0,0,0-3.89-5.4l-29.83-17-.12-33.62a8,8,0,0,0-2.83-6.08,111.91,111.91,0,0,0-36.72-20.67,8,8,0,0,0-6.46.59L128,41.85,97.88,25a8,8,0,0,0-6.47-.6A112.1,112.1,0,0,0,54.73,45.15a8,8,0,0,0-2.83,6.07l-.15,33.65-29.83,17a8,8,0,0,0-3.89,5.4,106.47,106.47,0,0,0,0,41.56,8,8,0,0,0,3.89,5.4l29.83,17,.12,33.62a8,8,0,0,0,2.83,6.08,111.91,111.91,0,0,0,36.72,20.67,8,8,0,0,0,6.46-.59L128,214.15,158.12,231a7.91,7.91,0,0,0,3.9,1,8.09,8.09,0,0,0,2.57-.42,112.1,112.1,0,0,0,36.68-20.73,8,8,0,0,0,2.83-6.07l.15-33.65,29.83-17a8,8,0,0,0,3.89-5.4A106.47,106.47,0,0,0,237.94,107.21Zm-15,34.91-28.57,16.25a8,8,0,0,0-3,3c-.58,1-1.19,2.06-1.81,3.06a7.94,7.94,0,0,0-1.22,4.21l-.15,32.25a95.89,95.89,0,0,1-25.37,14.3L134,199.13a8,8,0,0,0-3.91-1h-.19c-1.21,0-2.43,0-3.64,0a8.08,8.08,0,0,0-4.1,1l-28.84,16.1A96,96,0,0,1,67.88,201l-.11-32.2a8,8,0,0,0-1.22-4.22c-.62-1-1.23-2-1.8-3.06a8.09,8.09,0,0,0-3-3.06l-28.6-16.29a90.49,90.49,0,0,1,0-28.26L61.67,97.63a8,8,0,0,0,3-3c.58-1,1.19-2.06,1.81-3.06a7.94,7.94,0,0,0,1.22-4.21l.15-32.25a95.89,95.89,0,0,1,25.37-14.3L122,56.87a8,8,0,0,0,4.1,1c1.21,0,2.43,0,3.64,0a8.08,8.08,0,0,0,4.1-1l28.84-16.1A96,96,0,0,1,188.12,55l.11,32.2a8,8,0,0,0,1.22,4.22c.62,1,1.23,2,1.8,3.06a8.09,8.09,0,0,0,3,3.06l28.6,16.29A90.49,90.49,0,0,1,222.9,142.12Z" /></symbol><symbol id="i-gear-six-fill" viewBox="0 0 256 256" fill="currentColor"><ns0:path xmlns:ns0="http://www.w3.org/2000/svg" d="M237.94,107.21a8,8,0,0,0-3.89-5.4l-29.83-17-.12-33.62a8,8,0,0,0-2.83-6.08,111.91,111.91,0,0,0-36.72-20.67,8,8,0,0,0-6.46.59L128,41.85,97.88,25a8,8,0,0,0-6.47-.6A111.92,111.92,0,0,0,54.73,45.15a8,8,0,0,0-2.83,6.07l-.15,33.65-29.83,17a8,8,0,0,0-3.89,5.4,106.47,106.47,0,0,0,0,41.56,8,8,0,0,0,3.89,5.4l29.83,17,.12,33.63a8,8,0,0,0,2.83,6.08,111.91,111.91,0,0,0,36.72,20.67,8,8,0,0,0,6.46-.59L128,214.15,158.12,231a7.91,7.91,0,0,0,3.9,1,8.09,8.09,0,0,0,2.57-.42,112.1,112.1,0,0,0,36.68-20.73,8,8,0,0,0,2.83-6.07l.15-33.65,29.83-17a8,8,0,0,0,3.89-5.4A106.47,106.47,0,0,0,237.94,107.21ZM128,168a40,40,0,1,1,40-40A40,40,0,0,1,128,168Z" /></symbol><symbol id="i-cloud-check" viewBox="0 0 256 256" fill="currentColor"><ns0:path xmlns:ns0="http://www.w3.org/2000/svg" d="M160,40A88.09,88.09,0,0,0,81.29,88.67,64,64,0,1,0,72,216h88a88,88,0,0,0,0-176Zm0,160H72a48,48,0,0,1,0-96c1.1,0,2.2,0,3.29.11A88,88,0,0,0,72,128a8,8,0,0,0,16,0,72,72,0,1,1,72,72Zm37.66-93.66a8,8,0,0,1,0,11.32l-48,48a8,8,0,0,1-11.32,0l-24-24a8,8,0,0,1,11.32-11.32L144,148.69l42.34-42.35A8,8,0,0,1,197.66,106.34Z" /></symbol><symbol id="i-cloud-check-fill" viewBox="0 0 256 256" fill="currentColor"><ns0:path xmlns:ns0="http://www.w3.org/2000/svg" d="M247.93,124.52C246.11,77.54,207.07,40,160.06,40A88.1,88.1,0,0,0,81.29,88.67h0A87.48,87.48,0,0,0,72,127.73,8.18,8.18,0,0,1,64.57,136,8,8,0,0,1,56,128a103.66,103.66,0,0,1,5.34-32.92,4,4,0,0,0-4.75-5.18A64.09,64.09,0,0,0,8,152c0,35.19,29.75,64,65,64H160A88.09,88.09,0,0,0,247.93,124.52Zm-50.27-6.86-48,48a8,8,0,0,1-11.32,0l-24-24a8,8,0,0,1,11.32-11.32L144,148.69l42.34-42.35a8,8,0,0,1,11.32,11.32Z" /></symbol><symbol id="i-palette" viewBox="0 0 256 256" fill="currentColor"><ns0:path xmlns:ns0="http://www.w3.org/2000/svg" d="M200.77,53.89A103.27,103.27,0,0,0,128,24h-1.07A104,104,0,0,0,24,128c0,43,26.58,79.06,69.36,94.17A32,32,0,0,0,136,192a16,16,0,0,1,16-16h46.21a31.81,31.81,0,0,0,31.2-24.88,104.43,104.43,0,0,0,2.59-24A103.28,103.28,0,0,0,200.77,53.89Zm13,93.71A15.89,15.89,0,0,1,198.21,160H152a32,32,0,0,0-32,32,16,16,0,0,1-21.31,15.07C62.49,194.3,40,164,40,128a88,88,0,0,1,87.09-88h.9a88.35,88.35,0,0,1,88,87.25A88.86,88.86,0,0,1,213.81,147.6ZM140,76a12,12,0,1,1-12-12A12,12,0,0,1,140,76ZM96,100A12,12,0,1,1,84,88,12,12,0,0,1,96,100Zm0,56a12,12,0,1,1-12-12A12,12,0,0,1,96,156Zm88-56a12,12,0,1,1-12-12A12,12,0,0,1,184,100Z" /></symbol><symbol id="i-palette-fill" viewBox="0 0 256 256" fill="currentColor"><ns0:path xmlns:ns0="http://www.w3.org/2000/svg" d="M200.77,53.89A103.27,103.27,0,0,0,128,24h-1.07A104,104,0,0,0,24,128c0,43,26.58,79.06,69.36,94.17A32,32,0,0,0,136,192a16,16,0,0,1,16-16h46.21a31.81,31.81,0,0,0,31.2-24.88,104.43,104.43,0,0,0,2.59-24A103.28,103.28,0,0,0,200.77,53.89ZM84,168a12,12,0,1,1,12-12A12,12,0,0,1,84,168Zm0-56a12,12,0,1,1,12-12A12,12,0,0,1,84,112Zm44-24a12,12,0,1,1,12-12A12,12,0,0,1,128,88Zm44,24a12,12,0,1,1,12-12A12,12,0,0,1,172,112Z" /></symbol><symbol id="i-bell" viewBox="0 0 256 256" fill="currentColor"><ns0:path xmlns:ns0="http://www.w3.org/2000/svg" d="M221.8,175.94C216.25,166.38,208,139.33,208,104a80,80,0,1,0-160,0c0,35.34-8.26,62.38-13.81,71.94A16,16,0,0,0,48,200H88.81a40,40,0,0,0,78.38,0H208a16,16,0,0,0,13.8-24.06ZM128,216a24,24,0,0,1-22.62-16h45.24A24,24,0,0,1,128,216ZM48,184c7.7-13.24,16-43.92,16-80a64,64,0,1,1,128,0c0,36.05,8.28,66.73,16,80Z" /></symbol><symbol id="i-bell-fill" viewBox="0 0 256 256" fill="currentColor"><ns0:path xmlns:ns0="http://www.w3.org/2000/svg" d="M221.8,175.94C216.25,166.38,208,139.33,208,104a80,80,0,1,0-160,0c0,35.34-8.26,62.38-13.81,71.94A16,16,0,0,0,48,200H88.81a40,40,0,0,0,78.38,0H208a16,16,0,0,0,13.8-24.06ZM128,216a24,24,0,0,1-22.62-16h45.24A24,24,0,0,1,128,216Z" /></symbol><symbol id="i-microphone" viewBox="0 0 256 256" fill="currentColor"><ns0:path xmlns:ns0="http://www.w3.org/2000/svg" d="M128,176a48.05,48.05,0,0,0,48-48V64a48,48,0,0,0-96,0v64A48.05,48.05,0,0,0,128,176ZM96,64a32,32,0,0,1,64,0v64a32,32,0,0,1-64,0Zm40,143.6V240a8,8,0,0,1-16,0V207.6A80.11,80.11,0,0,1,48,128a8,8,0,0,1,16,0,64,64,0,0,0,128,0,8,8,0,0,1,16,0A80.11,80.11,0,0,1,136,207.6Z" /></symbol><symbol id="i-microphone-fill" viewBox="0 0 256 256" fill="currentColor"><ns0:path xmlns:ns0="http://www.w3.org/2000/svg" d="M80,128V64a48,48,0,0,1,96,0v64a48,48,0,0,1-96,0Zm128,0a8,8,0,0,0-16,0,64,64,0,0,1-128,0,8,8,0,0,0-16,0,80.11,80.11,0,0,0,72,79.6V240a8,8,0,0,0,16,0V207.6A80.11,80.11,0,0,0,208,128Z" /></symbol><symbol id="i-toolbox" viewBox="0 0 256 256" fill="currentColor"><ns0:path xmlns:ns0="http://www.w3.org/2000/svg" d="M224,64H176V56a24,24,0,0,0-24-24H104A24,24,0,0,0,80,56v8H32A16,16,0,0,0,16,80V192a16,16,0,0,0,16,16H224a16,16,0,0,0,16-16V80A16,16,0,0,0,224,64ZM96,56a8,8,0,0,1,8-8h48a8,8,0,0,1,8,8v8H96ZM224,80v32H192v-8a8,8,0,0,0-16,0v8H80v-8a8,8,0,0,0-16,0v8H32V80Zm0,112H32V128H64v8a8,8,0,0,0,16,0v-8h96v8a8,8,0,0,0,16,0v-8h32v64Z" /></symbol><symbol id="i-toolbox-fill" viewBox="0 0 256 256" fill="currentColor"><ns0:path xmlns:ns0="http://www.w3.org/2000/svg" d="M224,64H176V56a24,24,0,0,0-24-24H104A24,24,0,0,0,80,56v8H32A16,16,0,0,0,16,80v28a4,4,0,0,0,4,4H64V96.27A8.17,8.17,0,0,1,71.47,88,8,8,0,0,1,80,96v16h96V96.27A8.17,8.17,0,0,1,183.47,88,8,8,0,0,1,192,96v16h44a4,4,0,0,0,4-4V80A16,16,0,0,0,224,64Zm-64,0H96V56a8,8,0,0,1,8-8h48a8,8,0,0,1,8,8Zm80,68v60a16,16,0,0,1-16,16H32a16,16,0,0,1-16-16V132a4,4,0,0,1,4-4H64v16a8,8,0,0,0,8.53,8A8.17,8.17,0,0,0,80,143.73V128h96v16a8,8,0,0,0,8.53,8,8.17,8.17,0,0,0,7.47-8.25V128h44A4,4,0,0,1,240,132Z" /></symbol><symbol id="i-stack" viewBox="0 0 256 256" fill="currentColor"><ns0:path xmlns:ns0="http://www.w3.org/2000/svg" d="M230.91,172A8,8,0,0,1,228,182.91l-96,56a8,8,0,0,1-8.06,0l-96-56A8,8,0,0,1,36,169.09l92,53.65,92-53.65A8,8,0,0,1,230.91,172ZM220,121.09l-92,53.65L36,121.09A8,8,0,0,0,28,134.91l96,56a8,8,0,0,0,8.06,0l96-56A8,8,0,1,0,220,121.09ZM24,80a8,8,0,0,1,4-6.91l96-56a8,8,0,0,1,8.06,0l96,56a8,8,0,0,1,0,13.82l-96,56a8,8,0,0,1-8.06,0l-96-56A8,8,0,0,1,24,80Zm23.88,0L128,126.74,208.12,80,128,33.26Z" /></symbol><symbol id="i-stack-fill" viewBox="0 0 256 256" fill="currentColor"><ns0:path xmlns:ns0="http://www.w3.org/2000/svg" d="M220,169.09l-92,53.65L36,169.09A8,8,0,0,0,28,182.91l96,56a8,8,0,0,0,8.06,0l96-56A8,8,0,1,0,220,169.09Z" /><ns0:path xmlns:ns0="http://www.w3.org/2000/svg" d="M220,121.09l-92,53.65L36,121.09A8,8,0,0,0,28,134.91l96,56a8,8,0,0,0,8.06,0l96-56A8,8,0,1,0,220,121.09Z" /><ns0:path xmlns:ns0="http://www.w3.org/2000/svg" d="M28,86.91l96,56a8,8,0,0,0,8.06,0l96-56a8,8,0,0,0,0-13.82l-96-56a8,8,0,0,0-8.06,0l-96,56a8,8,0,0,0,0,13.82Z" /></symbol><symbol id="i-chat-circle-text" viewBox="0 0 256 256" fill="currentColor"><ns0:path xmlns:ns0="http://www.w3.org/2000/svg" d="M168,112a8,8,0,0,1-8,8H96a8,8,0,0,1,0-16h64A8,8,0,0,1,168,112Zm-8,24H96a8,8,0,0,0,0,16h64a8,8,0,0,0,0-16Zm72-8A104,104,0,0,1,79.12,219.82L45.07,231.17a16,16,0,0,1-20.24-20.24l11.35-34.05A104,104,0,1,1,232,128Zm-16,0A88,88,0,1,0,51.81,172.06a8,8,0,0,1,.66,6.54L40,216,77.4,203.53a7.85,7.85,0,0,1,2.53-.42,8,8,0,0,1,4,1.08A88,88,0,0,0,216,128Z" /></symbol><symbol id="i-chat-circle-text-fill" viewBox="0 0 256 256" fill="currentColor"><ns0:path xmlns:ns0="http://www.w3.org/2000/svg" d="M128,24A104,104,0,0,0,36.18,176.88L24.83,210.93a16,16,0,0,0,20.24,20.24l34.05-11.35A104,104,0,1,0,128,24Zm32,128H96a8,8,0,0,1,0-16h64a8,8,0,0,1,0,16Zm0-32H96a8,8,0,0,1,0-16h64a8,8,0,0,1,0,16Z" /></symbol><symbol id="i-shield-check" viewBox="0 0 256 256" fill="currentColor"><ns0:path xmlns:ns0="http://www.w3.org/2000/svg" d="M208,40H48A16,16,0,0,0,32,56v56c0,52.72,25.52,84.67,46.93,102.19,23.06,18.86,46,25.26,47,25.53a8,8,0,0,0,4.2,0c1-.27,23.91-6.67,47-25.53C198.48,196.67,224,164.72,224,112V56A16,16,0,0,0,208,40Zm0,72c0,37.07-13.66,67.16-40.6,89.42A129.3,129.3,0,0,1,128,223.62a128.25,128.25,0,0,1-38.92-21.81C61.82,179.51,48,149.3,48,112l0-56,160,0ZM82.34,141.66a8,8,0,0,1,11.32-11.32L112,148.69l50.34-50.35a8,8,0,0,1,11.32,11.32l-56,56a8,8,0,0,1-11.32,0Z" /></symbol><symbol id="i-shield-check-fill" viewBox="0 0 256 256" fill="currentColor"><ns0:path xmlns:ns0="http://www.w3.org/2000/svg" d="M208,40H48A16,16,0,0,0,32,56v56c0,52.72,25.52,84.67,46.93,102.19,23.06,18.86,46,25.26,47,25.53a8,8,0,0,0,4.2,0c1-.27,23.91-6.67,47-25.53C198.48,196.67,224,164.72,224,112V56A16,16,0,0,0,208,40Zm-34.32,69.66-56,56a8,8,0,0,1-11.32,0l-24-24a8,8,0,0,1,11.32-11.32L112,148.69l50.34-50.35a8,8,0,0,1,11.32,11.32Z" /></symbol><symbol id="i-brain" viewBox="0 0 256 256" fill="currentColor"><ns0:path xmlns:ns0="http://www.w3.org/2000/svg" d="M248,124a56.11,56.11,0,0,0-32-50.61V72a48,48,0,0,0-88-26.49A48,48,0,0,0,40,72v1.39a56,56,0,0,0,0,101.2V176a48,48,0,0,0,88,26.49A48,48,0,0,0,216,176v-1.41A56.09,56.09,0,0,0,248,124ZM88,208a32,32,0,0,1-31.81-28.56A55.87,55.87,0,0,0,64,180h8a8,8,0,0,0,0-16H64A40,40,0,0,1,50.67,86.27,8,8,0,0,0,56,78.73V72a32,32,0,0,1,64,0v68.26A47.8,47.8,0,0,0,88,128a8,8,0,0,0,0,16,32,32,0,0,1,0,64Zm104-44h-8a8,8,0,0,0,0,16h8a55.87,55.87,0,0,0,7.81-.56A32,32,0,1,1,168,144a8,8,0,0,0,0-16,47.8,47.8,0,0,0-32,12.26V72a32,32,0,0,1,64,0v6.73a8,8,0,0,0,5.33,7.54A40,40,0,0,1,192,164Zm16-52a8,8,0,0,1-8,8h-4a36,36,0,0,1-36-36V80a8,8,0,0,1,16,0v4a20,20,0,0,0,20,20h4A8,8,0,0,1,208,112ZM60,120H56a8,8,0,0,1,0-16h4A20,20,0,0,0,80,84V80a8,8,0,0,1,16,0v4A36,36,0,0,1,60,120Z" /></symbol><symbol id="i-brain-fill" viewBox="0 0 256 256" fill="currentColor"><ns0:path xmlns:ns0="http://www.w3.org/2000/svg" d="M212,76V72a44,44,0,0,0-74.86-31.31,3.93,3.93,0,0,0-1.14,2.8v88.72a4,4,0,0,0,6.2,3.33A47.67,47.67,0,0,1,167.68,128a8.18,8.18,0,0,1,8.31,7.58,8,8,0,0,1-8,8.42,32,32,0,0,0-32,32v33.88a4,4,0,0,0,1.49,3.12,47.92,47.92,0,0,0,74.21-17.16,4,4,0,0,0-4.49-5.56A68.06,68.06,0,0,1,192,192h-7.73a8.18,8.18,0,0,1-8.25-7.47,8,8,0,0,1,8-8.53h8a51.6,51.6,0,0,0,24-5.88v0A52,52,0,0,0,212,76Zm-12,36h-4a36,36,0,0,1-36-36V72a8,8,0,0,1,16,0v4a20,20,0,0,0,20,20h4a8,8,0,0,1,0,16ZM88,28A44.05,44.05,0,0,0,44,72v4a52,52,0,0,0-4,94.12h0A51.6,51.6,0,0,0,64,176h7.73A8.18,8.18,0,0,1,80,183.47,8,8,0,0,1,72,192H64a67.48,67.48,0,0,1-15.21-1.73,4,4,0,0,0-4.5,5.55A47.93,47.93,0,0,0,118.51,213a4,4,0,0,0,1.49-3.12V176a32,32,0,0,0-32-32,8,8,0,0,1-8-8.42A8.18,8.18,0,0,1,88.32,128a47.67,47.67,0,0,1,25.48,7.54,4,4,0,0,0,6.2-3.33V43.49a4,4,0,0,0-1.14-2.81A43.85,43.85,0,0,0,88,28Zm8,48a36,36,0,0,1-36,36H56a8,8,0,0,1,0-16h4A20,20,0,0,0,80,76V72a8,8,0,0,1,16,0Z" /></symbol><symbol id="i-archive" viewBox="0 0 256 256" fill="currentColor"><ns0:path xmlns:ns0="http://www.w3.org/2000/svg" d="M224,48H32A16,16,0,0,0,16,64V88a16,16,0,0,0,16,16v88a16,16,0,0,0,16,16H208a16,16,0,0,0,16-16V104a16,16,0,0,0,16-16V64A16,16,0,0,0,224,48ZM208,192H48V104H208ZM224,88H32V64H224V88ZM96,136a8,8,0,0,1,8-8h48a8,8,0,0,1,0,16H104A8,8,0,0,1,96,136Z" /></symbol><symbol id="i-archive-fill" viewBox="0 0 256 256" fill="currentColor"><ns0:path xmlns:ns0="http://www.w3.org/2000/svg" d="M224,48H32A16,16,0,0,0,16,64V88a16,16,0,0,0,16,16v88a16,16,0,0,0,16,16H208a16,16,0,0,0,16-16V104a16,16,0,0,0,16-16V64A16,16,0,0,0,224,48Zm-72,96H104a8,8,0,0,1,0-16h48a8,8,0,0,1,0,16Zm72-56H32V64H224V88Z" /></symbol><symbol id="i-clock-counter-clockwise" viewBox="0 0 256 256" fill="currentColor"><ns0:path xmlns:ns0="http://www.w3.org/2000/svg" d="M136,80v43.47l36.12,21.67a8,8,0,0,1-8.24,13.72l-40-24A8,8,0,0,1,120,128V80a8,8,0,0,1,16,0Zm-8-48A95.44,95.44,0,0,0,60.08,60.15C52.81,67.51,46.35,74.59,40,82V64a8,8,0,0,0-16,0v40a8,8,0,0,0,8,8H72a8,8,0,0,0,0-16H49c7.15-8.42,14.27-16.35,22.39-24.57a80,80,0,1,1,1.66,114.75,8,8,0,1,0-11,11.64A96,96,0,1,0,128,32Z" /></symbol><symbol id="i-clock-counter-clockwise-fill" viewBox="0 0 256 256" fill="currentColor"><ns0:path xmlns:ns0="http://www.w3.org/2000/svg" d="M224,128A96,96,0,0,1,62.11,197.82a8,8,0,1,1,11-11.64A80,80,0,1,0,71.43,71.43C67.9,75,64.58,78.51,61.35,82L77.66,98.34A8,8,0,0,1,72,112H32a8,8,0,0,1-8-8V64a8,8,0,0,1,13.66-5.66L50,70.7c3.22-3.49,6.54-7,10.06-10.55A96,96,0,0,1,224,128ZM128,72a8,8,0,0,0-8,8v48a8,8,0,0,0,3.88,6.86l40,24a8,8,0,1,0,8.24-13.72L136,123.47V80A8,8,0,0,0,128,72Z" /></symbol><symbol id="i-info" viewBox="0 0 256 256" fill="currentColor"><ns0:path xmlns:ns0="http://www.w3.org/2000/svg" d="M128,24A104,104,0,1,0,232,128,104.11,104.11,0,0,0,128,24Zm0,192a88,88,0,1,1,88-88A88.1,88.1,0,0,1,128,216Zm16-40a8,8,0,0,1-8,8,16,16,0,0,1-16-16V128a8,8,0,0,1,0-16,16,16,0,0,1,16,16v40A8,8,0,0,1,144,176ZM112,84a12,12,0,1,1,12,12A12,12,0,0,1,112,84Z" /></symbol><symbol id="i-info-fill" viewBox="0 0 256 256" fill="currentColor"><ns0:path xmlns:ns0="http://www.w3.org/2000/svg" d="M128,24A104,104,0,1,0,232,128,104.11,104.11,0,0,0,128,24Zm-4,48a12,12,0,1,1-12,12A12,12,0,0,1,124,72Zm12,112a16,16,0,0,1-16-16V128a8,8,0,0,1,0-16,16,16,0,0,1,16,16v40a8,8,0,0,1,0,16Z" /></symbol><symbol id="i-book-open-text" viewBox="0 0 256 256" fill="currentColor"><ns0:path xmlns:ns0="http://www.w3.org/2000/svg" d="M232,48H160a40,40,0,0,0-32,16A40,40,0,0,0,96,48H24a8,8,0,0,0-8,8V200a8,8,0,0,0,8,8H96a24,24,0,0,1,24,24,8,8,0,0,0,16,0,24,24,0,0,1,24-24h72a8,8,0,0,0,8-8V56A8,8,0,0,0,232,48ZM96,192H32V64H96a24,24,0,0,1,24,24V200A39.81,39.81,0,0,0,96,192Zm128,0H160a39.81,39.81,0,0,0-24,8V88a24,24,0,0,1,24-24h64ZM160,88h40a8,8,0,0,1,0,16H160a8,8,0,0,1,0-16Zm48,40a8,8,0,0,1-8,8H160a8,8,0,0,1,0-16h40A8,8,0,0,1,208,128Zm0,32a8,8,0,0,1-8,8H160a8,8,0,0,1,0-16h40A8,8,0,0,1,208,160Z" /></symbol><symbol id="i-book-open-text-fill" viewBox="0 0 256 256" fill="currentColor"><ns0:path xmlns:ns0="http://www.w3.org/2000/svg" d="M232,48H168a32,32,0,0,0-32,32v87.73a8.17,8.17,0,0,1-7.47,8.25,8,8,0,0,1-8.53-8V80A32,32,0,0,0,88,48H24a8,8,0,0,0-8,8V200a8,8,0,0,0,8,8H96a24,24,0,0,1,24,23.94,7.9,7.9,0,0,0,5.12,7.55A8,8,0,0,0,136,232a24,24,0,0,1,24-24h72a8,8,0,0,0,8-8V56A8,8,0,0,0,232,48ZM208,168H168.27a8.17,8.17,0,0,1-8.25-7.47,8,8,0,0,1,8-8.53h39.73a8.17,8.17,0,0,1,8.25,7.47A8,8,0,0,1,208,168Zm0-32H168.27a8.17,8.17,0,0,1-8.25-7.47,8,8,0,0,1,8-8.53h39.73a8.17,8.17,0,0,1,8.25,7.47A8,8,0,0,1,208,136Zm0-32H168.27A8.17,8.17,0,0,1,160,96.53,8,8,0,0,1,168,88h39.73A8.17,8.17,0,0,1,216,95.47,8,8,0,0,1,208,104Z" /></symbol><symbol id="i-file-text" viewBox="0 0 256 256" fill="currentColor"><ns0:path xmlns:ns0="http://www.w3.org/2000/svg" d="M213.66,82.34l-56-56A8,8,0,0,0,152,24H56A16,16,0,0,0,40,40V216a16,16,0,0,0,16,16H200a16,16,0,0,0,16-16V88A8,8,0,0,0,213.66,82.34ZM160,51.31,188.69,80H160ZM200,216H56V40h88V88a8,8,0,0,0,8,8h48V216Zm-32-80a8,8,0,0,1-8,8H96a8,8,0,0,1,0-16h64A8,8,0,0,1,168,136Zm0,32a8,8,0,0,1-8,8H96a8,8,0,0,1,0-16h64A8,8,0,0,1,168,168Z" /></symbol><symbol id="i-file-text-fill" viewBox="0 0 256 256" fill="currentColor"><ns0:path xmlns:ns0="http://www.w3.org/2000/svg" d="M213.66,82.34l-56-56A8,8,0,0,0,152,24H56A16,16,0,0,0,40,40V216a16,16,0,0,0,16,16H200a16,16,0,0,0,16-16V88A8,8,0,0,0,213.66,82.34ZM160,176H96a8,8,0,0,1,0-16h64a8,8,0,0,1,0,16Zm0-32H96a8,8,0,0,1,0-16h64a8,8,0,0,1,0,16Zm-8-56V44l44,44Z" /></symbol><symbol id="i-sparkle" viewBox="0 0 256 256" fill="currentColor"><ns0:path xmlns:ns0="http://www.w3.org/2000/svg" d="M197.58,129.06,146,110l-19-51.62a15.92,15.92,0,0,0-29.88,0L78,110l-51.62,19a15.92,15.92,0,0,0,0,29.88L78,178l19,51.62a15.92,15.92,0,0,0,29.88,0L146,178l51.62-19a15.92,15.92,0,0,0,0-29.88ZM137,164.22a8,8,0,0,0-4.74,4.74L112,223.85,91.78,169A8,8,0,0,0,87,164.22L32.15,144,87,123.78A8,8,0,0,0,91.78,119L112,64.15,132.22,119a8,8,0,0,0,4.74,4.74L191.85,144ZM144,40a8,8,0,0,1,8-8h16V16a8,8,0,0,1,16,0V32h16a8,8,0,0,1,0,16H184V64a8,8,0,0,1-16,0V48H152A8,8,0,0,1,144,40ZM248,88a8,8,0,0,1-8,8h-8v8a8,8,0,0,1-16,0V96h-8a8,8,0,0,1,0-16h8V72a8,8,0,0,1,16,0v8h8A8,8,0,0,1,248,88Z" /></symbol><symbol id="i-sparkle-fill" viewBox="0 0 256 256" fill="currentColor"><ns0:path xmlns:ns0="http://www.w3.org/2000/svg" d="M208,144a15.78,15.78,0,0,1-10.42,14.94L146,178l-19,51.62a15.92,15.92,0,0,1-29.88,0L78,178l-51.62-19a15.92,15.92,0,0,1,0-29.88L78,110l19-51.62a15.92,15.92,0,0,1,29.88,0L146,110l51.62,19A15.78,15.78,0,0,1,208,144ZM152,48h16V64a8,8,0,0,0,16,0V48h16a8,8,0,0,0,0-16H184V16a8,8,0,0,0-16,0V32H152a8,8,0,0,0,0,16Zm88,32h-8V72a8,8,0,0,0-16,0v8h-8a8,8,0,0,0,0,16h8v8a8,8,0,0,0,16,0V96h8a8,8,0,0,0,0-16Z" /></symbol><symbol id="i-caret-right" viewBox="0 0 256 256" fill="currentColor"><ns0:path xmlns:ns0="http://www.w3.org/2000/svg" d="M181.66,133.66l-80,80a8,8,0,0,1-11.32-11.32L164.69,128,90.34,53.66a8,8,0,0,1,11.32-11.32l80,80A8,8,0,0,1,181.66,133.66Z" /></symbol><symbol id="i-caret-left" viewBox="0 0 256 256" fill="currentColor"><ns0:path xmlns:ns0="http://www.w3.org/2000/svg" d="M165.66,202.34a8,8,0,0,1-11.32,11.32l-80-80a8,8,0,0,1,0-11.32l80-80a8,8,0,0,1,11.32,11.32L91.31,128Z" /></symbol><symbol id="i-check-circle-fill" viewBox="0 0 256 256" fill="currentColor"><ns0:path xmlns:ns0="http://www.w3.org/2000/svg" d="M128,24A104,104,0,1,0,232,128,104.11,104.11,0,0,0,128,24Zm45.66,85.66-56,56a8,8,0,0,1-11.32,0l-24-24a8,8,0,0,1,11.32-11.32L112,148.69l50.34-50.35a8,8,0,0,1,11.32,11.32Z" /></symbol><symbol id="i-robot" viewBox="0 0 256 256" fill="currentColor"><ns0:path xmlns:ns0="http://www.w3.org/2000/svg" d="M200,48H136V16a8,8,0,0,0-16,0V48H56A32,32,0,0,0,24,80V192a32,32,0,0,0,32,32H200a32,32,0,0,0,32-32V80A32,32,0,0,0,200,48Zm16,144a16,16,0,0,1-16,16H56a16,16,0,0,1-16-16V80A16,16,0,0,1,56,64H200a16,16,0,0,1,16,16Zm-52-56H92a28,28,0,0,0,0,56h72a28,28,0,0,0,0-56Zm-24,16v24H116V152ZM80,164a12,12,0,0,1,12-12h8v24H92A12,12,0,0,1,80,164Zm84,12h-8V152h8a12,12,0,0,1,0,24ZM72,108a12,12,0,1,1,12,12A12,12,0,0,1,72,108Zm88,0a12,12,0,1,1,12,12A12,12,0,0,1,160,108Z" /></symbol><symbol id="i-device-mobile" viewBox="0 0 256 256" fill="currentColor"><ns0:path xmlns:ns0="http://www.w3.org/2000/svg" d="M176,16H80A24,24,0,0,0,56,40V216a24,24,0,0,0,24,24h96a24,24,0,0,0,24-24V40A24,24,0,0,0,176,16ZM72,64H184V192H72Zm8-32h96a8,8,0,0,1,8,8v8H72V40A8,8,0,0,1,80,32Zm96,192H80a8,8,0,0,1-8-8v-8H184v8A8,8,0,0,1,176,224Z" /></symbol><symbol id="i-arrow-square-out" viewBox="0 0 256 256" fill="currentColor"><ns0:path xmlns:ns0="http://www.w3.org/2000/svg" d="M224,104a8,8,0,0,1-16,0V59.32l-66.33,66.34a8,8,0,0,1-11.32-11.32L196.68,48H152a8,8,0,0,1,0-16h64a8,8,0,0,1,8,8Zm-40,24a8,8,0,0,0-8,8v72H48V80h72a8,8,0,0,0,0-16H48A16,16,0,0,0,32,80V208a16,16,0,0,0,16,16H176a16,16,0,0,0,16-16V136A8,8,0,0,0,184,128Z" /></symbol>
  </defs>
  <title>Hermes separate settings list preview</title>
<rect width="1600" height="1140" fill="#F3F5F9"/><text x="82" y="82" font-family="Inter,Arial,sans-serif" font-size="20" font-weight="700" letter-spacing="5" fill="#2A9FE8">IN-CONTEXT · SETTINGS</text><text x="82" y="140" font-family="Inter,Arial,sans-serif" font-size="44" font-weight="700" fill="#1D2637">A dedicated settings page</text><text x="82" y="180" font-family="Inter,Arial,sans-serif" font-size="21" fill="#667287">No repeated avatar block. Each color is a small navigation cue, not a full-page decoration.</text><g transform="translate(82 224)"><rect width="820" height="838" rx="46" fill="#FFFFFF" filter="url(#shadow)"/><use href="#i-caret-left" x="36" y="37" width="34" height="34" color="#667287" opacity="1"/><text x="84" y="64" font-family="Inter,Arial,sans-serif" font-size="29" font-weight="700" fill="#1D2637">Settings</text><text x="84" y="91" font-family="Inter,Arial,sans-serif" font-size="15" fill="#667287">Hermes mobile preferences</text><g transform="translate(20 124)"><rect width="780" height="364" rx="30" fill="#FBFCFE"/><g transform="translate(0 0)"><rect x="22" y="16" width="58" height="58" rx="18" fill="#E5F3FD"/><use href="#i-cloud-check" x="37" y="31" width="28" height="28" color="#2A9FE8" opacity="1"/><text x="102" y="43" font-family="Inter,Arial,sans-serif" font-size="19" font-weight="650" fill="#1D2637">Remote gateway</text><text x="102" y="68" font-family="Inter,Arial,sans-serif" font-size="13.5" fill="#667287">Connected</text><text x="720" y="48" text-anchor="end" font-family="Inter,Arial,sans-serif" font-size="14" fill="#667287">0.20.1</text><use href="#i-caret-right" x="734" y="31" width="28" height="28" color="#8A95A7" opacity="1"/><line x1="102" y1="88" x2="760" y2="88" stroke="#E7EAF0" stroke-width="1.5"/></g><g transform="translate(0 90)"><rect x="22" y="16" width="58" height="58" rx="18" fill="#EEEAFE"/><use href="#i-palette" x="37" y="31" width="28" height="28" color="#7564E8" opacity="1"/><text x="102" y="43" font-family="Inter,Arial,sans-serif" font-size="19" font-weight="650" fill="#1D2637">Appearance</text><use href="#i-caret-right" x="734" y="31" width="28" height="28" color="#8A95A7" opacity="1"/><line x1="102" y1="88" x2="760" y2="88" stroke="#E7EAF0" stroke-width="1.5"/></g><g transform="translate(0 180)"><rect x="22" y="16" width="58" height="58" rx="18" fill="#FFE8EC"/><use href="#i-bell" x="37" y="31" width="28" height="28" color="#EF5362" opacity="1"/><text x="102" y="43" font-family="Inter,Arial,sans-serif" font-size="19" font-weight="650" fill="#1D2637">Notifications</text><use href="#i-caret-right" x="734" y="31" width="28" height="28" color="#8A95A7" opacity="1"/><line x1="102" y1="88" x2="760" y2="88" stroke="#E7EAF0" stroke-width="1.5"/></g><g transform="translate(0 270)"><rect x="22" y="16" width="58" height="58" rx="18" fill="#E3F7F8"/><use href="#i-microphone" x="37" y="31" width="28" height="28" color="#20AFC5" opacity="1"/><text x="102" y="43" font-family="Inter,Arial,sans-serif" font-size="19" font-weight="650" fill="#1D2637">Voice</text><use href="#i-caret-right" x="734" y="31" width="28" height="28" color="#8A95A7" opacity="1"/><line x1="102" y1="88" x2="760" y2="88" stroke="#E7EAF0" stroke-width="1.5"/></g></g><g transform="translate(20 510)"><rect width="780" height="288" rx="30" fill="#FBFCFE"/><g transform="translate(0 0)"><rect x="22" y="16" width="58" height="58" rx="18" fill="#EEEAFE"/><use href="#i-toolbox" x="37" y="31" width="28" height="28" color="#7564E8" opacity="1"/><text x="102" y="43" font-family="Inter,Arial,sans-serif" font-size="19" font-weight="650" fill="#1D2637">Skills &amp; tools</text><use href="#i-caret-right" x="734" y="31" width="28" height="28" color="#8A95A7" opacity="1"/><line x1="102" y1="88" x2="760" y2="88" stroke="#E7EAF0" stroke-width="1.5"/></g><g transform="translate(0 90)"><rect x="22" y="16" width="58" height="58" rx="18" fill="#E5F3FD"/><use href="#i-stack" x="37" y="31" width="28" height="28" color="#2A9FE8" opacity="1"/><text x="102" y="43" font-family="Inter,Arial,sans-serif" font-size="19" font-weight="650" fill="#1D2637">Model settings</text><use href="#i-caret-right" x="734" y="31" width="28" height="28" color="#8A95A7" opacity="1"/><line x1="102" y1="88" x2="760" y2="88" stroke="#E7EAF0" stroke-width="1.5"/></g><g transform="translate(0 180)"><rect x="22" y="16" width="58" height="58" rx="18" fill="#E2F7F0"/><use href="#i-shield-check" x="37" y="31" width="28" height="28" color="#24B98A" opacity="1"/><text x="102" y="43" font-family="Inter,Arial,sans-serif" font-size="19" font-weight="650" fill="#1D2637">Approval mode</text><use href="#i-caret-right" x="734" y="31" width="28" height="28" color="#8A95A7" opacity="1"/><line x1="102" y1="88" x2="760" y2="88" stroke="#E7EAF0" stroke-width="1.5"/></g></g></g><g transform="translate(944 224)"><rect width="574" height="838" rx="42" fill="#FFFFFF" filter="url(#shadow)"/><text x="34" y="58" font-family="Inter,Arial,sans-serif" font-size="18" font-weight="700" fill="#1D2637">Remaining destinations</text><rect x="34" y="92" width="506" height="88" rx="24" fill="#FBFCFE"/><rect x="50" y="107" width="58" height="58" rx="18" fill="#E3F7F8"/><use href="#i-chat-circle-text" x="65" y="122" width="28" height="28" color="#20AFC5" opacity="1"/><text x="130" y="130" font-family="Inter,Arial,sans-serif" font-size="17" font-weight="700" fill="#1D2637">Chat style</text><text x="130" y="156" font-family="Inter,Arial,sans-serif" font-size="13.5" fill="#667287">conversation behavior</text><use href="#i-caret-right" x="494" y="122" width="28" height="28" color="#8A95A7" opacity="1"/><rect x="34" y="198" width="506" height="88" rx="24" fill="#FBFCFE"/><rect x="50" y="213" width="58" height="58" rx="18" fill="#E5F3FD"/><use href="#i-brain" x="65" y="228" width="28" height="28" color="#2A9FE8" opacity="1"/><text x="130" y="236" font-family="Inter,Arial,sans-serif" font-size="17" font-weight="700" fill="#1D2637">Memory &amp; context</text><text x="130" y="262" font-family="Inter,Arial,sans-serif" font-size="13.5" fill="#667287">configuration</text><use href="#i-caret-right" x="494" y="228" width="28" height="28" color="#8A95A7" opacity="1"/><rect x="34" y="304" width="506" height="88" rx="24" fill="#FBFCFE"/><rect x="50" y="319" width="58" height="58" rx="18" fill="#FFF2D7"/><use href="#i-archive" x="65" y="334" width="28" height="28" color="#E79A20" opacity="1"/><text x="130" y="342" font-family="Inter,Arial,sans-serif" font-size="17" font-weight="700" fill="#1D2637">Archived chats</text><text x="130" y="368" font-family="Inter,Arial,sans-serif" font-size="13.5" fill="#667287">content library</text><use href="#i-caret-right" x="494" y="334" width="28" height="28" color="#8A95A7" opacity="1"/><rect x="34" y="410" width="506" height="88" rx="24" fill="#FBFCFE"/><rect x="50" y="425" width="58" height="58" rx="18" fill="#E3F7F8"/><use href="#i-clock-counter-clockwise" x="65" y="440" width="28" height="28" color="#20AFC5" opacity="1"/><text x="130" y="448" font-family="Inter,Arial,sans-serif" font-size="17" font-weight="700" fill="#1D2637">Changelog</text><text x="130" y="474" font-family="Inter,Arial,sans-serif" font-size="13.5" fill="#667287">support</text><use href="#i-caret-right" x="494" y="440" width="28" height="28" color="#8A95A7" opacity="1"/><rect x="34" y="516" width="506" height="88" rx="24" fill="#FBFCFE"/><rect x="50" y="531" width="58" height="58" rx="18" fill="#E5F3FD"/><use href="#i-book-open-text" x="65" y="546" width="28" height="28" color="#2A9FE8" opacity="1"/><text x="130" y="554" font-family="Inter,Arial,sans-serif" font-size="17" font-weight="700" fill="#1D2637">User guide</text><text x="130" y="580" font-family="Inter,Arial,sans-serif" font-size="13.5" fill="#667287">support</text><use href="#i-caret-right" x="494" y="546" width="28" height="28" color="#8A95A7" opacity="1"/><rect x="34" y="622" width="506" height="88" rx="24" fill="#FBFCFE"/><rect x="50" y="637" width="58" height="58" rx="18" fill="#E5F3FD"/><use href="#i-info" x="65" y="652" width="28" height="28" color="#2A9FE8" opacity="1"/><text x="130" y="660" font-family="Inter,Arial,sans-serif" font-size="17" font-weight="700" fill="#1D2637">About Hermes</text><text x="130" y="686" font-family="Inter,Arial,sans-serif" font-size="13.5" fill="#667287">version &amp; capability</text><use href="#i-caret-right" x="494" y="652" width="28" height="28" color="#8A95A7" opacity="1"/><rect x="34" y="748" width="506" height="54" rx="20" fill="#E2F7F0"/><use href="#i-check-circle-fill" x="54" y="763" width="24" height="24" color="#24B98A" opacity="1"/><text x="92" y="782" font-family="Inter,Arial,sans-serif" font-size="14" font-weight="700" fill="#1D2637">24 px audit passed · no crossing strokes</text></g></svg>